STARTFONT 2.1
COMMENT
COMMENT Converted from OpenType font "RobotoMono-Regular.ttf" by "otf2bdf 3.0".
COMMENT
FONT -FreeType-Roboto Mono-Medium-R-Normal--10-70-100-100-P-50-ISO10646-1
SIZE 7 100 100
FONTBOUNDINGBOX 13 14 -5 -3
STARTPROPERTIES 19
FOUNDRY "FreeType"
FAMILY_NAME "Roboto Mono"
WEIGHT_NAME "Medium"
SLANT "R"
SETWIDTH_NAME "Normal"
ADD_STYLE_NAME ""
PIXEL_SIZE 10
POINT_SIZE 70
RESOLUTION_X 100
RESOLUTION_Y 100
SPACING "P"
AVERAGE_WIDTH 50
CHARSET_REGISTRY "ISO10646"
CHARSET_ENCODING "1"
FONT_ASCENT 10
FONT_DESCENT 2
COPYRIGHT "Copyright 2015 The Roboto Mono Project Authors (https://github.com/googlefonts/robotomono)"
_OTF_FONTFILE "RobotoMono-Regular.ttf"
_OTF_PSNAME "RobotoMono-Regular"
ENDPROPERTIES
CHARS 876
STARTCHAR 000D
ENCODING 13
SWIDTH 617 0
DWIDTH 6 0
BBX 0 0 0 0
BITMAP
ENDCHAR
STARTCHAR 0020
ENCODING 32
SWIDTH 617 0
DWIDTH 6 0
BBX 0 0 0 0
BITMAP
ENDCHAR
STARTCHAR 0021
ENCODING 33
SWIDTH 617 0
DWIDTH 6 0
BBX 2 7 2 0
BITMAP
80
80
80
80
80
00
C0
ENDCHAR
STARTCHAR 0022
ENCODING 34
SWIDTH 617 0
DWIDTH 6 0
BBX 2 3 2 5
BITMAP
C0
C0
C0
ENDCHAR
STARTCHAR 0023
ENCODING 35
SWIDTH 617 0
DWIDTH 6 0
BBX 6 7 0 0
BITMAP
28
28
7C
28
F8
50
50
ENDCHAR
STARTCHAR 0024
ENCODING 36
SWIDTH 617 0
DWIDTH 6 0
BBX 4 9 1 -1
BITMAP
20
F0
90
80
60
10
90
F0
20
ENDCHAR
STARTCHAR 0025
ENCODING 37
SWIDTH 617 0
DWIDTH 6 0
BBX 6 7 0 0
BITMAP
E0
A8
70
10
3C
54
1C
ENDCHAR
STARTCHAR 0026
ENCODING 38
SWIDTH 617 0
DWIDTH 6 0
BBX 5 7 1 0
BITMAP
E0
A0
A0
C0
A8
90
F8
ENDCHAR
STARTCHAR 0027
ENCODING 39
SWIDTH 617 0
DWIDTH 6 0
BBX 1 3 2 5
BITMAP
80
80
80
ENDCHAR
STARTCHAR 0028
ENCODING 40
SWIDTH 617 0
DWIDTH 6 0
BBX 2 10 2 -2
BITMAP
40
40
80
80
80
80
80
80
80
40
ENDCHAR
STARTCHAR 0029
ENCODING 41
SWIDTH 617 0
DWIDTH 6 0
BBX 2 10 2 -2
BITMAP
80
80
40
40
40
40
40
40
80
80
ENDCHAR
STARTCHAR 002A
ENCODING 42
SWIDTH 617 0
DWIDTH 6 0
BBX 4 5 1 2
BITMAP
20
B0
60
60
D0
ENDCHAR
STARTCHAR 002B
ENCODING 43
SWIDTH 617 0
DWIDTH 6 0
BBX 4 5 1 1
BITMAP
20
20
F0
20
20
ENDCHAR
STARTCHAR 002C
ENCODING 44
SWIDTH 617 0
DWIDTH 6 0
BBX 1 3 2 -2
BITMAP
80
80
80
ENDCHAR
STARTCHAR 002D
ENCODING 45
SWIDTH 617 0
DWIDTH 6 0
BBX 4 1 1 3
BITMAP
F0
ENDCHAR
STARTCHAR 002E
ENCODING 46
SWIDTH 617 0
DWIDTH 6 0
BBX 2 1 2 0
BITMAP
C0
ENDCHAR
STARTCHAR 002F
ENCODING 47
SWIDTH 617 0
DWIDTH 6 0
BBX 4 8 1 -1
BITMAP
10
20
20
20
40
40
40
80
ENDCHAR
STARTCHAR 0030
ENCODING 48
SWIDTH 617 0
DWIDTH 6 0
BBX 4 7 1 0
BITMAP
F0
90
90
F0
90
90
F0
ENDCHAR
STARTCHAR 0031
ENCODING 49
SWIDTH 617 0
DWIDTH 6 0
BBX 3 7 1 0
BITMAP
60
A0
20
20
20
20
20
ENDCHAR
STARTCHAR 0032
ENCODING 50
SWIDTH 617 0
DWIDTH 6 0
BBX 5 7 0 0
BITMAP
70
88
08
10
20
40
78
ENDCHAR
STARTCHAR 0033
ENCODING 51
SWIDTH 617 0
DWIDTH 6 0
BBX 5 7 0 0
BITMAP
70
88
08
30
08
88
70
ENDCHAR
STARTCHAR 0034
ENCODING 52
SWIDTH 617 0
DWIDTH 6 0
BBX 6 7 0 0
BITMAP
18
28
28
48
FC
08
08
ENDCHAR
STARTCHAR 0035
ENCODING 53
SWIDTH 617 0
DWIDTH 6 0
BBX 4 7 1 0
BITMAP
F0
80
E0
90
10
90
70
ENDCHAR
STARTCHAR 0036
ENCODING 54
SWIDTH 617 0
DWIDTH 6 0
BBX 4 7 1 0
BITMAP
60
80
E0
90
90
90
F0
ENDCHAR
STARTCHAR 0037
ENCODING 55
SWIDTH 617 0
DWIDTH 6 0
BBX 4 7 1 0
BITMAP
F0
10
20
20
20
40
C0
ENDCHAR
STARTCHAR 0038
ENCODING 56
SWIDTH 617 0
DWIDTH 6 0
BBX 4 7 1 0
BITMAP
F0
90
90
60
90
90
F0
ENDCHAR
STARTCHAR 0039
ENCODING 57
SWIDTH 617 0
DWIDTH 6 0
BBX 4 7 1 0
BITMAP
F0
90
90
90
70
10
60
ENDCHAR
STARTCHAR 003A
ENCODING 58
SWIDTH 617 0
DWIDTH 6 0
BBX 1 5 3 0
BITMAP
80
00
00
00
80
ENDCHAR
STARTCHAR 003B
ENCODING 59
SWIDTH 617 0
DWIDTH 6 0
BBX 2 7 2 -2
BITMAP
40
00
00
00
40
40
80
ENDCHAR
STARTCHAR 003C
ENCODING 60
SWIDTH 617 0
DWIDTH 6 0
BBX 4 4 1 1
BITMAP
30
C0
60
10
ENDCHAR
STARTCHAR 003D
ENCODING 61
SWIDTH 617 0
DWIDTH 6 0
BBX 4 3 1 2
BITMAP
F0
00
F0
ENDCHAR
STARTCHAR 003E
ENCODING 62
SWIDTH 617 0
DWIDTH 6 0
BBX 4 4 1 1
BITMAP
C0
30
60
80
ENDCHAR
STARTCHAR 003F
ENCODING 63
SWIDTH 617 0
DWIDTH 6 0
BBX 4 7 1 0
BITMAP
F0
90
10
20
40
00
60
ENDCHAR
STARTCHAR 0040
ENCODING 64
SWIDTH 617 0
DWIDTH 6 0
BBX 6 7 0 0
BITMAP
38
54
B4
B4
B4
88
70
ENDCHAR
STARTCHAR 0041
ENCODING 65
SWIDTH 617 0
DWIDTH 6 0
BBX 6 7 0 0
BITMAP
30
30
30
48
78
48
C4
ENDCHAR
STARTCHAR 0042
ENCODING 66
SWIDTH 617 0
DWIDTH 6 0
BBX 4 7 1 0
BITMAP
F0
90
90
F0
90
90
F0
ENDCHAR
STARTCHAR 0043
ENCODING 67
SWIDTH 617 0
DWIDTH 6 0
BBX 4 7 1 0
BITMAP
F0
90
80
80
80
90
F0
ENDCHAR
STARTCHAR 0044
ENCODING 68
SWIDTH 617 0
DWIDTH 6 0
BBX 5 7 1 0
BITMAP
E0
90
88
88
88
90
E0
ENDCHAR
STARTCHAR 0045
ENCODING 69
SWIDTH 617 0
DWIDTH 6 0
BBX 4 7 1 0
BITMAP
F0
80
80
F0
80
80
F0
ENDCHAR
STARTCHAR 0046
ENCODING 70
SWIDTH 617 0
DWIDTH 6 0
BBX 4 7 1 0
BITMAP
F0
80
80
F0
80
80
80
ENDCHAR
STARTCHAR 0047
ENCODING 71
SWIDTH 617 0
DWIDTH 6 0
BBX 5 7 0 0
BITMAP
78
48
80
98
48
48
38
ENDCHAR
STARTCHAR 0048
ENCODING 72
SWIDTH 617 0
DWIDTH 6 0
BBX 4 7 1 0
BITMAP
90
90
90
F0
90
90
90
ENDCHAR
STARTCHAR 0049
ENCODING 73
SWIDTH 617 0
DWIDTH 6 0
BBX 4 7 1 0
BITMAP
F0
40
40
40
40
40
F0
ENDCHAR
STARTCHAR 004A
ENCODING 74
SWIDTH 617 0
DWIDTH 6 0
BBX 5 7 0 0
BITMAP
08
08
08
08
08
C8
70
ENDCHAR
STARTCHAR 004B
ENCODING 75
SWIDTH 617 0
DWIDTH 6 0
BBX 5 7 1 0
BITMAP
98
A0
E0
C0
A0
90
98
ENDCHAR
STARTCHAR 004C
ENCODING 76
SWIDTH 617 0
DWIDTH 6 0
BBX 4 7 1 0
BITMAP
80
80
80
80
80
80
F0
ENDCHAR
STARTCHAR 004D
ENCODING 77
SWIDTH 617 0
DWIDTH 6 0
BBX 4 7 1 0
BITMAP
90
90
F0
F0
D0
90
90
ENDCHAR
STARTCHAR 004E
ENCODING 78
SWIDTH 617 0
DWIDTH 6 0
BBX 4 7 1 0
BITMAP
90
90
D0
B0
B0
90
90
ENDCHAR
STARTCHAR 004F
ENCODING 79
SWIDTH 617 0
DWIDTH 6 0
BBX 4 7 1 0
BITMAP
F0
90
90
90
90
90
F0
ENDCHAR
STARTCHAR 0050
ENCODING 80
SWIDTH 617 0
DWIDTH 6 0
BBX 5 7 1 0
BITMAP
F0
88
88
F0
80
80
80
ENDCHAR
STARTCHAR 0051
ENCODING 81
SWIDTH 617 0
DWIDTH 6 0
BBX 6 8 0 -1
BITMAP
78
48
84
84
84
48
78
0C
ENDCHAR
STARTCHAR 0052
ENCODING 82
SWIDTH 617 0
DWIDTH 6 0
BBX 5 7 1 0
BITMAP
F0
90
90
F0
A0
90
98
ENDCHAR
STARTCHAR 0053
ENCODING 83
SWIDTH 617 0
DWIDTH 6 0
BBX 5 7 1 0
BITMAP
F0
98
80
60
10
88
F0
ENDCHAR
STARTCHAR 0054
ENCODING 84
SWIDTH 617 0
DWIDTH 6 0
BBX 6 7 0 0
BITMAP
FC
10
10
10
10
10
10
ENDCHAR
STARTCHAR 0055
ENCODING 85
SWIDTH 617 0
DWIDTH 6 0
BBX 4 7 1 0
BITMAP
90
90
90
90
90
90
F0
ENDCHAR
STARTCHAR 0056
ENCODING 86
SWIDTH 617 0
DWIDTH 6 0
BBX 6 7 0 0
BITMAP
CC
48
48
48
30
30
30
ENDCHAR
STARTCHAR 0057
ENCODING 87
SWIDTH 617 0
DWIDTH 6 0
BBX 6 7 0 0
BITMAP
94
B4
74
78
68
48
48
ENDCHAR
STARTCHAR 0058
ENCODING 88
SWIDTH 617 0
DWIDTH 6 0
BBX 6 7 0 0
BITMAP
CC
48
30
10
30
48
CC
ENDCHAR
STARTCHAR 0059
ENCODING 89
SWIDTH 617 0
DWIDTH 6 0
BBX 6 7 0 0
BITMAP
CC
48
30
30
20
20
20
ENDCHAR
STARTCHAR 005A
ENCODING 90
SWIDTH 617 0
DWIDTH 6 0
BBX 4 7 1 0
BITMAP
F0
10
20
40
40
80
F0
ENDCHAR
STARTCHAR 005B
ENCODING 91
SWIDTH 617 0
DWIDTH 6 0
BBX 2 10 2 -2
BITMAP
C0
80
80
80
80
80
80
80
80
C0
ENDCHAR
STARTCHAR 005C
ENCODING 92
SWIDTH 617 0
DWIDTH 6 0
BBX 4 8 1 -1
BITMAP
80
40
40
40
20
20
10
10
ENDCHAR
STARTCHAR 005D
ENCODING 93
SWIDTH 617 0
DWIDTH 6 0
BBX 2 10 2 -2
BITMAP
C0
40
40
40
40
40
40
40
40
C0
ENDCHAR
STARTCHAR 005E
ENCODING 94
SWIDTH 617 0
DWIDTH 6 0
BBX 4 4 1 3
BITMAP
60
60
60
90
ENDCHAR
STARTCHAR 005F
ENCODING 95
SWIDTH 617 0
DWIDTH 6 0
BBX 4 1 1 -1
BITMAP
F0
ENDCHAR
STARTCHAR 0060
ENCODING 96
SWIDTH 617 0
DWIDTH 6 0
BBX 2 1 2 6
BITMAP
C0
ENDCHAR
STARTCHAR 0061
ENCODING 97
SWIDTH 617 0
DWIDTH 6 0
BBX 4 5 1 0
BITMAP
F0
10
F0
90
F0
ENDCHAR
STARTCHAR 0062
ENCODING 98
SWIDTH 617 0
DWIDTH 6 0
BBX 4 8 1 0
BITMAP
80
80
80
F0
90
90
90
F0
ENDCHAR
STARTCHAR 0063
ENCODING 99
SWIDTH 617 0
DWIDTH 6 0
BBX 4 5 1 0
BITMAP
F0
90
80
90
F0
ENDCHAR
STARTCHAR 0064
ENCODING 100
SWIDTH 617 0
DWIDTH 6 0
BBX 4 8 1 0
BITMAP
10
10
10
F0
90
90
90
F0
ENDCHAR
STARTCHAR 0065
ENCODING 101
SWIDTH 617 0
DWIDTH 6 0
BBX 4 5 1 0
BITMAP
F0
90
F0
80
F0
ENDCHAR
STARTCHAR 0066
ENCODING 102
SWIDTH 617 0
DWIDTH 6 0
BBX 5 8 1 0
BITMAP
38
40
40
F0
40
40
40
40
ENDCHAR
STARTCHAR 0067
ENCODING 103
SWIDTH 617 0
DWIDTH 6 0
BBX 4 7 1 -2
BITMAP
F0
90
90
90
F0
10
F0
ENDCHAR
STARTCHAR 0068
ENCODING 104
SWIDTH 617 0
DWIDTH 6 0
BBX 4 8 1 0
BITMAP
80
80
80
F0
90
90
90
90
ENDCHAR
STARTCHAR 0069
ENCODING 105
SWIDTH 617 0
DWIDTH 6 0
BBX 4 7 1 0
BITMAP
20
00
E0
20
20
20
F0
ENDCHAR
STARTCHAR 006A
ENCODING 106
SWIDTH 617 0
DWIDTH 6 0
BBX 3 9 1 -2
BITMAP
20
00
E0
20
20
20
20
20
E0
ENDCHAR
STARTCHAR 006B
ENCODING 107
SWIDTH 617 0
DWIDTH 6 0
BBX 5 8 1 0
BITMAP
80
80
80
B0
C0
E0
A0
98
ENDCHAR
STARTCHAR 006C
ENCODING 108
SWIDTH 617 0
DWIDTH 6 0
BBX 4 8 1 0
BITMAP
E0
20
20
20
20
20
20
F0
ENDCHAR
STARTCHAR 006D
ENCODING 109
SWIDTH 617 0
DWIDTH 6 0
BBX 6 5 0 0
BITMAP
FC
94
94
94
94
ENDCHAR
STARTCHAR 006E
ENCODING 110
SWIDTH 617 0
DWIDTH 6 0
BBX 4 5 1 0
BITMAP
F0
90
90
90
90
ENDCHAR
STARTCHAR 006F
ENCODING 111
SWIDTH 617 0
DWIDTH 6 0
BBX 4 5 1 0
BITMAP
F0
90
90
90
F0
ENDCHAR
STARTCHAR 0070
ENCODING 112
SWIDTH 617 0
DWIDTH 6 0
BBX 4 7 1 -2
BITMAP
F0
90
90
90
F0
80
80
ENDCHAR
STARTCHAR 0071
ENCODING 113
SWIDTH 617 0
DWIDTH 6 0
BBX 4 7 1 -2
BITMAP
F0
90
90
90
F0
10
10
ENDCHAR
STARTCHAR 0072
ENCODING 114
SWIDTH 617 0
DWIDTH 6 0
BBX 3 5 2 0
BITMAP
E0
80
80
80
80
ENDCHAR
STARTCHAR 0073
ENCODING 115
SWIDTH 617 0
DWIDTH 6 0
BBX 4 5 1 0
BITMAP
F0
80
70
90
F0
ENDCHAR
STARTCHAR 0074
ENCODING 116
SWIDTH 617 0
DWIDTH 6 0
BBX 4 7 1 0
BITMAP
40
40
F0
40
40
40
70
ENDCHAR
STARTCHAR 0075
ENCODING 117
SWIDTH 617 0
DWIDTH 6 0
BBX 4 5 1 0
BITMAP
90
90
90
90
F0
ENDCHAR
STARTCHAR 0076
ENCODING 118
SWIDTH 617 0
DWIDTH 6 0
BBX 6 5 0 0
BITMAP
CC
48
30
30
30
ENDCHAR
STARTCHAR 0077
ENCODING 119
SWIDTH 617 0
DWIDTH 6 0
BBX 6 5 0 0
BITMAP
94
B4
78
48
48
ENDCHAR
STARTCHAR 0078
ENCODING 120
SWIDTH 617 0
DWIDTH 6 0
BBX 5 5 1 0
BITMAP
98
60
60
60
98
ENDCHAR
STARTCHAR 0079
ENCODING 121
SWIDTH 617 0
DWIDTH 6 0
BBX 6 7 0 -2
BITMAP
CC
48
30
30
30
20
60
ENDCHAR
STARTCHAR 007A
ENCODING 122
SWIDTH 617 0
DWIDTH 6 0
BBX 4 5 1 0
BITMAP
F0
20
40
C0
F0
ENDCHAR
STARTCHAR 007B
ENCODING 123
SWIDTH 617 0
DWIDTH 6 0
BBX 3 10 2 -2
BITMAP
20
40
40
40
80
80
40
40
40
20
ENDCHAR
STARTCHAR 007C
ENCODING 124
SWIDTH 617 0
DWIDTH 6 0
BBX 1 9 3 -2
BITMAP
80
80
80
80
80
80
80
80
80
ENDCHAR
STARTCHAR 007D
ENCODING 125
SWIDTH 617 0
DWIDTH 6 0
BBX 3 10 2 -2
BITMAP
80
80
40
40
60
40
40
40
80
80
ENDCHAR
STARTCHAR 007E
ENCODING 126
SWIDTH 617 0
DWIDTH 6 0
BBX 6 2 0 2
BITMAP
64
98
ENDCHAR
STARTCHAR 00A0
ENCODING 160
SWIDTH 617 0
DWIDTH 6 0
BBX 0 0 0 0
BITMAP
ENDCHAR
STARTCHAR 00A1
ENCODING 161
SWIDTH 617 0
DWIDTH 6 0
BBX 2 7 2 -2
BITMAP
C0
00
80
80
80
80
80
ENDCHAR
STARTCHAR 00A2
ENCODING 162
SWIDTH 617 0
DWIDTH 6 0
BBX 4 7 1 -1
BITMAP
20
D0
90
80
90
70
20
ENDCHAR
STARTCHAR 00A3
ENCODING 163
SWIDTH 617 0
DWIDTH 6 0
BBX 5 7 1 0
BITMAP
70
90
80
E0
80
80
F8
ENDCHAR
STARTCHAR 00A4
ENCODING 164
SWIDTH 617 0
DWIDTH 6 0
BBX 6 5 0 0
BITMAP
FC
48
44
48
FC
ENDCHAR
STARTCHAR 00A5
ENCODING 165
SWIDTH 617 0
DWIDTH 6 0
BBX 6 7 0 0
BITMAP
CC
48
30
78
20
78
20
ENDCHAR
STARTCHAR 00A6
ENCODING 166
SWIDTH 617 0
DWIDTH 6 0
BBX 1 8 2 -1
BITMAP
80
80
80
80
80
80
80
80
ENDCHAR
STARTCHAR 00A7
ENCODING 167
SWIDTH 617 0
DWIDTH 6 0
BBX 6 9 0 -2
BITMAP
78
48
40
78
84
68
18
88
78
ENDCHAR
STARTCHAR 00A8
ENCODING 168
SWIDTH 617 0
DWIDTH 6 0
BBX 4 1 1 6
BITMAP
B0
ENDCHAR
STARTCHAR 00A9
ENCODING 169
SWIDTH 617 0
DWIDTH 6 0
BBX 6 5 0 0
BITMAP
78
B4
C4
B4
78
ENDCHAR
STARTCHAR 00AA
ENCODING 170
SWIDTH 617 0
DWIDTH 6 0
BBX 4 4 1 3
BITMAP
60
60
90
70
ENDCHAR
STARTCHAR 00AB
ENCODING 171
SWIDTH 617 0
DWIDTH 6 0
BBX 4 4 1 1
BITMAP
50
60
A0
70
ENDCHAR
STARTCHAR 00AC
ENCODING 172
SWIDTH 617 0
DWIDTH 6 0
BBX 4 2 1 2
BITMAP
F0
10
ENDCHAR
STARTCHAR 00AD
ENCODING 173
SWIDTH 617 0
DWIDTH 6 0
BBX 4 1 1 3
BITMAP
F0
ENDCHAR
STARTCHAR 00AE
ENCODING 174
SWIDTH 617 0
DWIDTH 6 0
BBX 6 5 0 0
BITMAP
78
B4
B4
B4
78
ENDCHAR
STARTCHAR 00AF
ENCODING 175
SWIDTH 617 0
DWIDTH 6 0
BBX 4 1 1 6
BITMAP
F0
ENDCHAR
STARTCHAR 00B0
ENCODING 176
SWIDTH 617 0
DWIDTH 6 0
BBX 2 2 2 5
BITMAP
C0
C0
ENDCHAR
STARTCHAR 00B1
ENCODING 177
SWIDTH 617 0
DWIDTH 6 0
BBX 4 6 1 0
BITMAP
20
20
F0
20
20
F0
ENDCHAR
STARTCHAR 00B2
ENCODING 178
SWIDTH 617 0
DWIDTH 6 0
BBX 3 4 2 3
BITMAP
C0
40
80
E0
ENDCHAR
STARTCHAR 00B3
ENCODING 179
SWIDTH 617 0
DWIDTH 6 0
BBX 3 4 2 3
BITMAP
C0
40
20
C0
ENDCHAR
STARTCHAR 00B4
ENCODING 180
SWIDTH 617 0
DWIDTH 6 0
BBX 2 1 2 6
BITMAP
C0
ENDCHAR
STARTCHAR 00B5
ENCODING 181
SWIDTH 617 0
DWIDTH 6 0
BBX 4 7 1 -2
BITMAP
90
90
90
90
F0
80
80
ENDCHAR
STARTCHAR 00B6
ENCODING 182
SWIDTH 617 0
DWIDTH 6 0
BBX 4 7 1 0
BITMAP
70
F0
F0
F0
10
10
10
ENDCHAR
STARTCHAR 00B7
ENCODING 183
SWIDTH 617 0
DWIDTH 6 0
BBX 2 1 2 3
BITMAP
C0
ENDCHAR
STARTCHAR 00B8
ENCODING 184
SWIDTH 617 0
DWIDTH 6 0
BBX 2 2 2 -2
BITMAP
C0
C0
ENDCHAR
STARTCHAR 00B9
ENCODING 185
SWIDTH 617 0
DWIDTH 6 0
BBX 2 4 2 3
BITMAP
C0
40
40
40
ENDCHAR
STARTCHAR 00BA
ENCODING 186
SWIDTH 617 0
DWIDTH 6 0
BBX 4 4 1 3
BITMAP
60
90
90
60
ENDCHAR
STARTCHAR 00BB
ENCODING 187
SWIDTH 617 0
DWIDTH 6 0
BBX 4 4 1 1
BITMAP
A0
60
50
E0
ENDCHAR
STARTCHAR 00BC
ENCODING 188
SWIDTH 617 0
DWIDTH 6 0
BBX 6 7 0 0
BITMAP
C0
50
50
20
28
5C
08
ENDCHAR
STARTCHAR 00BD
ENCODING 189
SWIDTH 617 0
DWIDTH 6 0
BBX 6 7 0 0
BITMAP
C0
50
50
28
34
48
1C
ENDCHAR
STARTCHAR 00BE
ENCODING 190
SWIDTH 617 0
DWIDTH 6 0
BBX 6 7 0 0
BITMAP
E0
48
B0
50
28
3C
04
ENDCHAR
STARTCHAR 00BF
ENCODING 191
SWIDTH 617 0
DWIDTH 6 0
BBX 4 7 1 -2
BITMAP
60
00
60
40
80
90
60
ENDCHAR
STARTCHAR 00C0
ENCODING 192
SWIDTH 617 0
DWIDTH 6 0
BBX 6 9 0 0
BITMAP
20
00
30
30
30
48
78
48
C4
ENDCHAR
STARTCHAR 00C1
ENCODING 193
SWIDTH 617 0
DWIDTH 6 0
BBX 6 9 0 0
BITMAP
18
00
30
30
30
48
78
48
C4
ENDCHAR
STARTCHAR 00C2
ENCODING 194
SWIDTH 617 0
DWIDTH 6 0
BBX 6 9 0 0
BITMAP
38
00
30
30
30
48
78
48
C4
ENDCHAR
STARTCHAR 00C3
ENCODING 195
SWIDTH 617 0
DWIDTH 6 0
BBX 6 9 0 0
BITMAP
78
00
30
30
30
48
78
48
C4
ENDCHAR
STARTCHAR 00C4
ENCODING 196
SWIDTH 617 0
DWIDTH 6 0
BBX 6 9 0 0
BITMAP
68
00
30
30
30
48
78
48
C4
ENDCHAR
STARTCHAR 00C5
ENCODING 197
SWIDTH 617 0
DWIDTH 6 0
BBX 6 9 0 0
BITMAP
30
10
30
30
30
48
78
48
C4
ENDCHAR
STARTCHAR 00C6
ENCODING 198
SWIDTH 617 0
DWIDTH 6 0
BBX 6 7 0 0
BITMAP
1C
30
30
5C
70
50
9C
ENDCHAR
STARTCHAR 00C7
ENCODING 199
SWIDTH 617 0
DWIDTH 6 0
BBX 4 9 1 -2
BITMAP
F0
90
80
80
80
90
F0
20
20
ENDCHAR
STARTCHAR 00C8
ENCODING 200
SWIDTH 617 0
DWIDTH 6 0
BBX 4 9 1 0
BITMAP
C0
00
F0
80
80
F0
80
80
F0
ENDCHAR
STARTCHAR 00C9
ENCODING 201
SWIDTH 617 0
DWIDTH 6 0
BBX 4 9 1 0
BITMAP
30
00
F0
80
80
F0
80
80
F0
ENDCHAR
STARTCHAR 00CA
ENCODING 202
SWIDTH 617 0
DWIDTH 6 0
BBX 4 9 1 0
BITMAP
70
00
F0
80
80
F0
80
80
F0
ENDCHAR
STARTCHAR 00CB
ENCODING 203
SWIDTH 617 0
DWIDTH 6 0
BBX 4 9 1 0
BITMAP
D0
00
F0
80
80
F0
80
80
F0
ENDCHAR
STARTCHAR 00CC
ENCODING 204
SWIDTH 617 0
DWIDTH 6 0
BBX 4 9 1 0
BITMAP
C0
00
F0
40
40
40
40
40
F0
ENDCHAR
STARTCHAR 00CD
ENCODING 205
SWIDTH 617 0
DWIDTH 6 0
BBX 4 9 1 0
BITMAP
60
00
F0
40
40
40
40
40
F0
ENDCHAR
STARTCHAR 00CE
ENCODING 206
SWIDTH 617 0
DWIDTH 6 0
BBX 4 9 1 0
BITMAP
E0
00
F0
40
40
40
40
40
F0
ENDCHAR
STARTCHAR 00CF
ENCODING 207
SWIDTH 617 0
DWIDTH 6 0
BBX 4 9 1 0
BITMAP
A0
00
F0
40
40
40
40
40
F0
ENDCHAR
STARTCHAR 00D0
ENCODING 208
SWIDTH 617 0
DWIDTH 6 0
BBX 6 7 0 0
BITMAP
70
48
44
E4
44
48
70
ENDCHAR
STARTCHAR 00D1
ENCODING 209
SWIDTH 617 0
DWIDTH 6 0
BBX 4 9 1 0
BITMAP
F0
00
90
90
D0
B0
B0
90
90
ENDCHAR
STARTCHAR 00D2
ENCODING 210
SWIDTH 617 0
DWIDTH 6 0
BBX 4 9 1 0
BITMAP
40
00
F0
90
90
90
90
90
F0
ENDCHAR
STARTCHAR 00D3
ENCODING 211
SWIDTH 617 0
DWIDTH 6 0
BBX 4 9 1 0
BITMAP
30
00
F0
90
90
90
90
90
F0
ENDCHAR
STARTCHAR 00D4
ENCODING 212
SWIDTH 617 0
DWIDTH 6 0
BBX 4 9 1 0
BITMAP
70
00
F0
90
90
90
90
90
F0
ENDCHAR
STARTCHAR 00D5
ENCODING 213
SWIDTH 617 0
DWIDTH 6 0
BBX 4 9 1 0
BITMAP
F0
00
F0
90
90
90
90
90
F0
ENDCHAR
STARTCHAR 00D6
ENCODING 214
SWIDTH 617 0
DWIDTH 6 0
BBX 4 9 1 0
BITMAP
D0
00
F0
90
90
90
90
90
F0
ENDCHAR
STARTCHAR 00D7
ENCODING 215
SWIDTH 617 0
DWIDTH 6 0
BBX 4 4 1 1
BITMAP
90
60
60
90
ENDCHAR
STARTCHAR 00D8
ENCODING 216
SWIDTH 617 0
DWIDTH 6 0
BBX 6 7 0 0
BITMAP
7C
48
98
98
A8
48
F0
ENDCHAR
STARTCHAR 00D9
ENCODING 217
SWIDTH 617 0
DWIDTH 6 0
BBX 4 9 1 0
BITMAP
60
00
90
90
90
90
90
90
F0
ENDCHAR
STARTCHAR 00DA
ENCODING 218
SWIDTH 617 0
DWIDTH 6 0
BBX 4 9 1 0
BITMAP
30
00
90
90
90
90
90
90
F0
ENDCHAR
STARTCHAR 00DB
ENCODING 219
SWIDTH 617 0
DWIDTH 6 0
BBX 4 9 1 0
BITMAP
70
00
90
90
90
90
90
90
F0
ENDCHAR
STARTCHAR 00DC
ENCODING 220
SWIDTH 617 0
DWIDTH 6 0
BBX 4 9 1 0
BITMAP
50
00
90
90
90
90
90
90
F0
ENDCHAR
STARTCHAR 00DD
ENCODING 221
SWIDTH 617 0
DWIDTH 6 0
BBX 6 9 0 0
BITMAP
18
04
C8
48
30
30
20
20
20
ENDCHAR
STARTCHAR 00DE
ENCODING 222
SWIDTH 617 0
DWIDTH 6 0
BBX 4 7 1 0
BITMAP
80
E0
90
90
90
E0
80
ENDCHAR
STARTCHAR 00DF
ENCODING 223
SWIDTH 617 0
DWIDTH 6 0
BBX 4 8 1 0
BITMAP
40
A0
90
A0
A0
90
90
F0
ENDCHAR
STARTCHAR 00E0
ENCODING 224
SWIDTH 617 0
DWIDTH 6 0
BBX 4 7 1 0
BITMAP
40
00
F0
10
F0
90
F0
ENDCHAR
STARTCHAR 00E1
ENCODING 225
SWIDTH 617 0
DWIDTH 6 0
BBX 4 7 1 0
BITMAP
30
00
F0
10
F0
90
F0
ENDCHAR
STARTCHAR 00E2
ENCODING 226
SWIDTH 617 0
DWIDTH 6 0
BBX 4 7 1 0
BITMAP
70
00
F0
10
F0
90
F0
ENDCHAR
STARTCHAR 00E3
ENCODING 227
SWIDTH 617 0
DWIDTH 6 0
BBX 4 7 1 0
BITMAP
F0
00
F0
10
F0
90
F0
ENDCHAR
STARTCHAR 00E4
ENCODING 228
SWIDTH 617 0
DWIDTH 6 0
BBX 4 7 1 0
BITMAP
D0
00
F0
10
F0
90
F0
ENDCHAR
STARTCHAR 00E5
ENCODING 229
SWIDTH 617 0
DWIDTH 6 0
BBX 4 7 1 0
BITMAP
60
20
D0
10
F0
90
F0
ENDCHAR
STARTCHAR 00E6
ENCODING 230
SWIDTH 617 0
DWIDTH 6 0
BBX 6 5 0 0
BITMAP
FC
24
7C
A0
FC
ENDCHAR
STARTCHAR 00E7
ENCODING 231
SWIDTH 617 0
DWIDTH 6 0
BBX 4 7 1 -2
BITMAP
F0
90
80
90
F0
20
20
ENDCHAR
STARTCHAR 00E8
ENCODING 232
SWIDTH 617 0
DWIDTH 6 0
BBX 4 7 1 0
BITMAP
C0
00
F0
90
F0
80
F0
ENDCHAR
STARTCHAR 00E9
ENCODING 233
SWIDTH 617 0
DWIDTH 6 0
BBX 4 7 1 0
BITMAP
30
00
F0
90
F0
80
F0
ENDCHAR
STARTCHAR 00EA
ENCODING 234
SWIDTH 617 0
DWIDTH 6 0
BBX 4 7 1 0
BITMAP
70
00
F0
90
F0
80
F0
ENDCHAR
STARTCHAR 00EB
ENCODING 235
SWIDTH 617 0
DWIDTH 6 0
BBX 4 7 1 0
BITMAP
D0
00
F0
90
F0
80
F0
ENDCHAR
STARTCHAR 00EC
ENCODING 236
SWIDTH 617 0
DWIDTH 6 0
BBX 4 7 1 0
BITMAP
60
00
E0
20
20
20
F0
ENDCHAR
STARTCHAR 00ED
ENCODING 237
SWIDTH 617 0
DWIDTH 6 0
BBX 4 7 1 0
BITMAP
30
00
E0
20
20
20
F0
ENDCHAR
STARTCHAR 00EE
ENCODING 238
SWIDTH 617 0
DWIDTH 6 0
BBX 4 7 1 0
BITMAP
70
00
E0
20
20
20
F0
ENDCHAR
STARTCHAR 00EF
ENCODING 239
SWIDTH 617 0
DWIDTH 6 0
BBX 4 7 1 0
BITMAP
50
00
E0
20
20
20
F0
ENDCHAR
STARTCHAR 00F0
ENCODING 240
SWIDTH 617 0
DWIDTH 6 0
BBX 5 7 0 0
BITMAP
38
28
38
48
88
88
70
ENDCHAR
STARTCHAR 00F1
ENCODING 241
SWIDTH 617 0
DWIDTH 6 0
BBX 4 7 1 0
BITMAP
F0
00
F0
90
90
90
90
ENDCHAR
STARTCHAR 00F2
ENCODING 242
SWIDTH 617 0
DWIDTH 6 0
BBX 4 7 1 0
BITMAP
C0
00
F0
90
90
90
F0
ENDCHAR
STARTCHAR 00F3
ENCODING 243
SWIDTH 617 0
DWIDTH 6 0
BBX 4 7 1 0
BITMAP
30
00
F0
90
90
90
F0
ENDCHAR
STARTCHAR 00F4
ENCODING 244
SWIDTH 617 0
DWIDTH 6 0
BBX 4 7 1 0
BITMAP
60
00
F0
90
90
90
F0
ENDCHAR
STARTCHAR 00F5
ENCODING 245
SWIDTH 617 0
DWIDTH 6 0
BBX 4 7 1 0
BITMAP
F0
00
F0
90
90
90
F0
ENDCHAR
STARTCHAR 00F6
ENCODING 246
SWIDTH 617 0
DWIDTH 6 0
BBX 4 7 1 0
BITMAP
B0
00
F0
90
90
90
F0
ENDCHAR
STARTCHAR 00F7
ENCODING 247
SWIDTH 617 0
DWIDTH 6 0
BBX 4 5 1 1
BITMAP
60
00
F0
00
60
ENDCHAR
STARTCHAR 00F8
ENCODING 248
SWIDTH 617 0
DWIDTH 6 0
BBX 4 7 1 -1
BITMAP
10
F0
B0
D0
D0
F0
80
ENDCHAR
STARTCHAR 00F9
ENCODING 249
SWIDTH 617 0
DWIDTH 6 0
BBX 4 7 1 0
BITMAP
C0
00
90
90
90
90
F0
ENDCHAR
STARTCHAR 00FA
ENCODING 250
SWIDTH 617 0
DWIDTH 6 0
BBX 4 7 1 0
BITMAP
30
00
90
90
90
90
F0
ENDCHAR
STARTCHAR 00FB
ENCODING 251
SWIDTH 617 0
DWIDTH 6 0
BBX 4 7 1 0
BITMAP
60
00
90
90
90
90
F0
ENDCHAR
STARTCHAR 00FC
ENCODING 252
SWIDTH 617 0
DWIDTH 6 0
BBX 4 7 1 0
BITMAP
B0
00
90
90
90
90
F0
ENDCHAR
STARTCHAR 00FD
ENCODING 253
SWIDTH 617 0
DWIDTH 6 0
BBX 6 9 0 -2
BITMAP
18
84
48
48
30
30
30
20
60
ENDCHAR
STARTCHAR 00FE
ENCODING 254
SWIDTH 617 0
DWIDTH 6 0
BBX 4 10 1 -2
BITMAP
80
80
80
F0
90
90
90
F0
80
80
ENDCHAR
STARTCHAR 00FF
ENCODING 255
SWIDTH 617 0
DWIDTH 6 0
BBX 6 9 0 -2
BITMAP
68
84
48
48
30
30
30
20
60
ENDCHAR
STARTCHAR 0100
ENCODING 256
SWIDTH 617 0
DWIDTH 6 0
BBX 6 9 0 0
BITMAP
78
00
30
30
30
48
78
48
C4
ENDCHAR
STARTCHAR 0101
ENCODING 257
SWIDTH 617 0
DWIDTH 6 0
BBX 4 7 1 0
BITMAP
F0
00
F0
10
F0
90
F0
ENDCHAR
STARTCHAR 0102
ENCODING 258
SWIDTH 617 0
DWIDTH 6 0
BBX 6 9 0 0
BITMAP
38
00
30
30
30
48
78
48
C4
ENDCHAR
STARTCHAR 0103
ENCODING 259
SWIDTH 617 0
DWIDTH 6 0
BBX 4 7 1 0
BITMAP
70
00
F0
10
F0
90
F0
ENDCHAR
STARTCHAR 0104
ENCODING 260
SWIDTH 617 0
DWIDTH 6 0
BBX 6 9 0 -2
BITMAP
30
30
30
48
78
48
C4
08
0C
ENDCHAR
STARTCHAR 0105
ENCODING 261
SWIDTH 617 0
DWIDTH 6 0
BBX 4 7 1 -2
BITMAP
F0
10
F0
90
F0
10
30
ENDCHAR
STARTCHAR 0106
ENCODING 262
SWIDTH 617 0
DWIDTH 6 0
BBX 4 9 1 0
BITMAP
30
00
F0
90
80
80
80
90
F0
ENDCHAR
STARTCHAR 0107
ENCODING 263
SWIDTH 617 0
DWIDTH 6 0
BBX 4 7 1 0
BITMAP
30
00
F0
90
80
90
F0
ENDCHAR
STARTCHAR 0108
ENCODING 264
SWIDTH 617 0
DWIDTH 6 0
BBX 4 9 1 0
BITMAP
70
00
F0
90
80
80
80
90
F0
ENDCHAR
STARTCHAR 0109
ENCODING 265
SWIDTH 617 0
DWIDTH 6 0
BBX 4 7 1 0
BITMAP
70
00
F0
90
80
90
F0
ENDCHAR
STARTCHAR 010A
ENCODING 266
SWIDTH 617 0
DWIDTH 6 0
BBX 4 9 1 0
BITMAP
20
00
F0
90
80
80
80
90
F0
ENDCHAR
STARTCHAR 010B
ENCODING 267
SWIDTH 617 0
DWIDTH 6 0
BBX 4 7 1 0
BITMAP
20
00
F0
90
80
90
F0
ENDCHAR
STARTCHAR 010C
ENCODING 268
SWIDTH 617 0
DWIDTH 6 0
BBX 4 9 1 0
BITMAP
70
00
F0
90
80
80
80
90
F0
ENDCHAR
STARTCHAR 010D
ENCODING 269
SWIDTH 617 0
DWIDTH 6 0
BBX 4 7 1 0
BITMAP
70
00
F0
90
80
90
F0
ENDCHAR
STARTCHAR 010E
ENCODING 270
SWIDTH 617 0
DWIDTH 6 0
BBX 5 9 1 0
BITMAP
E0
00
E0
90
88
88
88
90
E0
ENDCHAR
STARTCHAR 010F
ENCODING 271
SWIDTH 617 0
DWIDTH 6 0
BBX 7 8 0 0
BITMAP
0A
0A
0A
78
48
88
48
78
ENDCHAR
STARTCHAR 0110
ENCODING 272
SWIDTH 617 0
DWIDTH 6 0
BBX 6 7 0 0
BITMAP
70
48
44
E4
44
48
70
ENDCHAR
STARTCHAR 0111
ENCODING 273
SWIDTH 617 0
DWIDTH 6 0
BBX 5 8 1 0
BITMAP
10
38
10
F0
90
90
90
F0
ENDCHAR
STARTCHAR 0112
ENCODING 274
SWIDTH 617 0
DWIDTH 6 0
BBX 4 9 1 0
BITMAP
F0
00
F0
80
80
F0
80
80
F0
ENDCHAR
STARTCHAR 0113
ENCODING 275
SWIDTH 617 0
DWIDTH 6 0
BBX 4 7 1 0
BITMAP
F0
00
F0
90
F0
80
F0
ENDCHAR
STARTCHAR 0114
ENCODING 276
SWIDTH 617 0
DWIDTH 6 0
BBX 4 9 1 0
BITMAP
60
00
F0
80
80
F0
80
80
F0
ENDCHAR
STARTCHAR 0115
ENCODING 277
SWIDTH 617 0
DWIDTH 6 0
BBX 4 7 1 0
BITMAP
60
00
F0
90
F0
80
F0
ENDCHAR
STARTCHAR 0116
ENCODING 278
SWIDTH 617 0
DWIDTH 6 0
BBX 4 9 1 0
BITMAP
60
00
F0
80
80
F0
80
80
F0
ENDCHAR
STARTCHAR 0117
ENCODING 279
SWIDTH 617 0
DWIDTH 6 0
BBX 4 7 1 0
BITMAP
60
00
F0
90
F0
80
F0
ENDCHAR
STARTCHAR 0118
ENCODING 280
SWIDTH 617 0
DWIDTH 6 0
BBX 4 9 1 -2
BITMAP
F0
80
80
F0
80
80
F0
20
30
ENDCHAR
STARTCHAR 0119
ENCODING 281
SWIDTH 617 0
DWIDTH 6 0
BBX 4 7 1 -2
BITMAP
F0
90
F0
80
70
20
20
ENDCHAR
STARTCHAR 011A
ENCODING 282
SWIDTH 617 0
DWIDTH 6 0
BBX 4 9 1 0
BITMAP
70
00
F0
80
80
F0
80
80
F0
ENDCHAR
STARTCHAR 011B
ENCODING 283
SWIDTH 617 0
DWIDTH 6 0
BBX 4 7 1 0
BITMAP
70
00
F0
90
F0
80
F0
ENDCHAR
STARTCHAR 011C
ENCODING 284
SWIDTH 617 0
DWIDTH 6 0
BBX 5 9 0 0
BITMAP
38
00
78
48
80
98
48
48
38
ENDCHAR
STARTCHAR 011D
ENCODING 285
SWIDTH 617 0
DWIDTH 6 0
BBX 4 9 1 -2
BITMAP
E0
00
F0
90
90
90
F0
10
F0
ENDCHAR
STARTCHAR 011E
ENCODING 286
SWIDTH 617 0
DWIDTH 6 0
BBX 5 9 0 0
BITMAP
38
00
78
48
80
98
48
48
38
ENDCHAR
STARTCHAR 011F
ENCODING 287
SWIDTH 617 0
DWIDTH 6 0
BBX 4 9 1 -2
BITMAP
E0
00
F0
90
90
90
F0
10
F0
ENDCHAR
STARTCHAR 0120
ENCODING 288
SWIDTH 617 0
DWIDTH 6 0
BBX 5 9 0 0
BITMAP
10
00
78
48
80
98
48
48
38
ENDCHAR
STARTCHAR 0121
ENCODING 289
SWIDTH 617 0
DWIDTH 6 0
BBX 4 9 1 -2
BITMAP
60
00
F0
90
90
90
F0
10
F0
ENDCHAR
STARTCHAR 0122
ENCODING 290
SWIDTH 617 0
DWIDTH 6 0
BBX 5 9 0 -2
BITMAP
78
48
80
98
48
48
38
10
20
ENDCHAR
STARTCHAR 0123
ENCODING 291
SWIDTH 617 0
DWIDTH 6 0
BBX 4 10 1 -2
BITMAP
20
40
00
F0
90
90
90
F0
10
F0
ENDCHAR
STARTCHAR 0124
ENCODING 292
SWIDTH 617 0
DWIDTH 6 0
BBX 4 9 1 0
BITMAP
E0
00
90
90
90
F0
90
90
90
ENDCHAR
STARTCHAR 0125
ENCODING 293
SWIDTH 617 0
DWIDTH 6 0
BBX 5 9 0 0
BITMAP
E0
40
40
40
78
48
48
48
48
ENDCHAR
STARTCHAR 0126
ENCODING 294
SWIDTH 617 0
DWIDTH 6 0
BBX 6 7 0 0
BITMAP
48
FC
48
78
48
48
48
ENDCHAR
STARTCHAR 0127
ENCODING 295
SWIDTH 617 0
DWIDTH 6 0
BBX 5 8 0 0
BITMAP
40
E0
40
78
48
48
48
48
ENDCHAR
STARTCHAR 0128
ENCODING 296
SWIDTH 617 0
DWIDTH 6 0
BBX 4 9 1 0
BITMAP
E0
00
F0
40
40
40
40
40
F0
ENDCHAR
STARTCHAR 0129
ENCODING 297
SWIDTH 617 0
DWIDTH 6 0
BBX 4 7 1 0
BITMAP
F0
00
E0
20
20
20
F0
ENDCHAR
STARTCHAR 012A
ENCODING 298
SWIDTH 617 0
DWIDTH 6 0
BBX 4 9 1 0
BITMAP
F0
00
F0
40
40
40
40
40
F0
ENDCHAR
STARTCHAR 012B
ENCODING 299
SWIDTH 617 0
DWIDTH 6 0
BBX 4 7 1 0
BITMAP
70
00
E0
20
20
20
F0
ENDCHAR
STARTCHAR 012C
ENCODING 300
SWIDTH 617 0
DWIDTH 6 0
BBX 4 9 1 0
BITMAP
E0
00
F0
40
40
40
40
40
F0
ENDCHAR
STARTCHAR 012D
ENCODING 301
SWIDTH 617 0
DWIDTH 6 0
BBX 4 7 1 0
BITMAP
70
00
E0
20
20
20
F0
ENDCHAR
STARTCHAR 012E
ENCODING 302
SWIDTH 617 0
DWIDTH 6 0
BBX 4 9 1 -2
BITMAP
F0
40
40
40
40
40
F0
40
60
ENDCHAR
STARTCHAR 012F
ENCODING 303
SWIDTH 617 0
DWIDTH 6 0
BBX 4 9 1 -2
BITMAP
20
00
E0
20
20
20
F0
40
60
ENDCHAR
STARTCHAR 0130
ENCODING 304
SWIDTH 617 0
DWIDTH 6 0
BBX 4 9 1 0
BITMAP
40
00
F0
40
40
40
40
40
F0
ENDCHAR
STARTCHAR 0131
ENCODING 305
SWIDTH 617 0
DWIDTH 6 0
BBX 4 5 1 0
BITMAP
E0
20
20
20
F0
ENDCHAR
STARTCHAR 0132
ENCODING 306
SWIDTH 617 0
DWIDTH 6 0
BBX 4 7 1 0
BITMAP
90
90
90
90
90
D0
F0
ENDCHAR
STARTCHAR 0133
ENCODING 307
SWIDTH 617 0
DWIDTH 6 0
BBX 5 9 0 -2
BITMAP
68
00
F8
28
28
28
F8
08
38
ENDCHAR
STARTCHAR 0134
ENCODING 308
SWIDTH 617 0
DWIDTH 6 0
BBX 6 9 0 0
BITMAP
1C
00
08
08
08
08
08
C8
70
ENDCHAR
STARTCHAR 0135
ENCODING 309
SWIDTH 617 0
DWIDTH 6 0
BBX 4 9 1 -2
BITMAP
70
00
E0
20
20
20
20
20
C0
ENDCHAR
STARTCHAR 0136
ENCODING 310
SWIDTH 617 0
DWIDTH 6 0
BBX 5 9 1 -2
BITMAP
98
A0
E0
C0
A0
90
98
20
40
ENDCHAR
STARTCHAR 0137
ENCODING 311
SWIDTH 617 0
DWIDTH 6 0
BBX 5 10 1 -2
BITMAP
80
80
80
B0
C0
E0
A0
98
40
40
ENDCHAR
STARTCHAR 0138
ENCODING 312
SWIDTH 617 0
DWIDTH 6 0
BBX 5 5 1 0
BITMAP
90
A0
E0
A0
98
ENDCHAR
STARTCHAR 0139
ENCODING 313
SWIDTH 617 0
DWIDTH 6 0
BBX 4 9 1 0
BITMAP
C0
00
80
80
80
80
80
80
F0
ENDCHAR
STARTCHAR 013A
ENCODING 314
SWIDTH 617 0
DWIDTH 6 0
BBX 4 9 1 0
BITMAP
30
E0
20
20
20
20
20
20
F0
ENDCHAR
STARTCHAR 013B
ENCODING 315
SWIDTH 617 0
DWIDTH 6 0
BBX 4 9 1 -2
BITMAP
80
80
80
80
80
80
F0
20
40
ENDCHAR
STARTCHAR 013C
ENCODING 316
SWIDTH 617 0
DWIDTH 6 0
BBX 4 10 1 -2
BITMAP
E0
20
20
20
20
20
20
F0
20
40
ENDCHAR
STARTCHAR 013D
ENCODING 317
SWIDTH 617 0
DWIDTH 6 0
BBX 4 8 1 0
BITMAP
10
90
A0
80
80
80
80
F0
ENDCHAR
STARTCHAR 013E
ENCODING 318
SWIDTH 617 0
DWIDTH 6 0
BBX 5 8 1 0
BITMAP
C8
48
48
40
40
40
40
F0
ENDCHAR
STARTCHAR 013F
ENCODING 319
SWIDTH 617 0
DWIDTH 6 0
BBX 4 7 1 0
BITMAP
80
80
80
A0
80
80
F0
ENDCHAR
STARTCHAR 0140
ENCODING 320
SWIDTH 617 0
DWIDTH 6 0
BBX 4 8 1 0
BITMAP
C0
40
40
40
50
40
40
F0
ENDCHAR
STARTCHAR 0141
ENCODING 321
SWIDTH 617 0
DWIDTH 6 0
BBX 5 7 0 0
BITMAP
40
40
50
E0
40
40
78
ENDCHAR
STARTCHAR 0142
ENCODING 322
SWIDTH 617 0
DWIDTH 6 0
BBX 4 8 1 0
BITMAP
E0
20
20
30
E0
20
20
F0
ENDCHAR
STARTCHAR 0143
ENCODING 323
SWIDTH 617 0
DWIDTH 6 0
BBX 4 9 1 0
BITMAP
20
40
90
90
D0
B0
B0
90
90
ENDCHAR
STARTCHAR 0144
ENCODING 324
SWIDTH 617 0
DWIDTH 6 0
BBX 4 7 1 0
BITMAP
30
00
F0
90
90
90
90
ENDCHAR
STARTCHAR 0145
ENCODING 325
SWIDTH 617 0
DWIDTH 6 0
BBX 4 9 1 -2
BITMAP
90
90
D0
B0
B0
90
90
40
40
ENDCHAR
STARTCHAR 0146
ENCODING 326
SWIDTH 617 0
DWIDTH 6 0
BBX 4 7 1 -2
BITMAP
F0
90
90
90
90
40
40
ENDCHAR
STARTCHAR 0147
ENCODING 327
SWIDTH 617 0
DWIDTH 6 0
BBX 4 9 1 0
BITMAP
E0
00
90
90
D0
B0
B0
90
90
ENDCHAR
STARTCHAR 0148
ENCODING 328
SWIDTH 617 0
DWIDTH 6 0
BBX 4 7 1 0
BITMAP
E0
00
F0
90
90
90
90
ENDCHAR
STARTCHAR 0149
ENCODING 329
SWIDTH 617 0
DWIDTH 6 0
BBX 5 8 0 0
BITMAP
80
80
80
78
48
48
48
48
ENDCHAR
STARTCHAR 014A
ENCODING 330
SWIDTH 617 0
DWIDTH 6 0
BBX 4 9 1 -2
BITMAP
90
D0
D0
B0
B0
90
90
10
30
ENDCHAR
STARTCHAR 014B
ENCODING 331
SWIDTH 617 0
DWIDTH 6 0
BBX 4 7 1 -2
BITMAP
F0
90
90
90
90
10
30
ENDCHAR
STARTCHAR 014C
ENCODING 332
SWIDTH 617 0
DWIDTH 6 0
BBX 4 9 1 0
BITMAP
F0
00
F0
90
90
90
90
90
F0
ENDCHAR
STARTCHAR 014D
ENCODING 333
SWIDTH 617 0
DWIDTH 6 0
BBX 4 7 1 0
BITMAP
F0
00
F0
90
90
90
F0
ENDCHAR
STARTCHAR 014E
ENCODING 334
SWIDTH 617 0
DWIDTH 6 0
BBX 4 9 1 0
BITMAP
70
00
F0
90
90
90
90
90
F0
ENDCHAR
STARTCHAR 014F
ENCODING 335
SWIDTH 617 0
DWIDTH 6 0
BBX 4 7 1 0
BITMAP
60
00
F0
90
90
90
F0
ENDCHAR
STARTCHAR 0150
ENCODING 336
SWIDTH 617 0
DWIDTH 6 0
BBX 5 9 1 0
BITMAP
78
00
F0
90
90
88
90
90
F0
ENDCHAR
STARTCHAR 0151
ENCODING 337
SWIDTH 617 0
DWIDTH 6 0
BBX 4 7 1 0
BITMAP
70
00
F0
90
90
90
F0
ENDCHAR
STARTCHAR 0152
ENCODING 338
SWIDTH 617 0
DWIDTH 6 0
BBX 6 7 0 0
BITMAP
7C
90
90
9C
90
90
7C
ENDCHAR
STARTCHAR 0153
ENCODING 339
SWIDTH 617 0
DWIDTH 6 0
BBX 6 5 0 0
BITMAP
FC
94
9C
90
7C
ENDCHAR
STARTCHAR 0154
ENCODING 340
SWIDTH 617 0
DWIDTH 6 0
BBX 5 9 1 0
BITMAP
30
00
F0
90
90
F0
A0
90
98
ENDCHAR
STARTCHAR 0155
ENCODING 341
SWIDTH 617 0
DWIDTH 6 0
BBX 3 7 2 0
BITMAP
40
80
E0
80
80
80
80
ENDCHAR
STARTCHAR 0156
ENCODING 342
SWIDTH 617 0
DWIDTH 6 0
BBX 5 9 1 -2
BITMAP
F0
90
90
F0
A0
90
98
20
40
ENDCHAR
STARTCHAR 0157
ENCODING 343
SWIDTH 617 0
DWIDTH 6 0
BBX 4 7 1 -2
BITMAP
70
40
40
40
40
40
80
ENDCHAR
STARTCHAR 0158
ENCODING 344
SWIDTH 617 0
DWIDTH 6 0
BBX 5 9 1 0
BITMAP
F0
00
F0
90
90
F0
A0
90
98
ENDCHAR
STARTCHAR 0159
ENCODING 345
SWIDTH 617 0
DWIDTH 6 0
BBX 4 7 1 0
BITMAP
E0
00
70
40
40
40
40
ENDCHAR
STARTCHAR 015A
ENCODING 346
SWIDTH 617 0
DWIDTH 6 0
BBX 5 9 1 0
BITMAP
30
00
F0
98
80
60
10
88
F0
ENDCHAR
STARTCHAR 015B
ENCODING 347
SWIDTH 617 0
DWIDTH 6 0
BBX 4 7 1 0
BITMAP
30
00
F0
80
70
90
F0
ENDCHAR
STARTCHAR 015C
ENCODING 348
SWIDTH 617 0
DWIDTH 6 0
BBX 5 9 1 0
BITMAP
70
00
F0
98
80
60
10
88
F0
ENDCHAR
STARTCHAR 015D
ENCODING 349
SWIDTH 617 0
DWIDTH 6 0
BBX 4 7 1 0
BITMAP
70
00
F0
80
70
90
F0
ENDCHAR
STARTCHAR 015E
ENCODING 350
SWIDTH 617 0
DWIDTH 6 0
BBX 5 9 1 -2
BITMAP
F0
98
80
60
10
88
F0
20
20
ENDCHAR
STARTCHAR 015F
ENCODING 351
SWIDTH 617 0
DWIDTH 6 0
BBX 4 7 1 -2
BITMAP
F0
80
70
90
F0
20
20
ENDCHAR
STARTCHAR 0160
ENCODING 352
SWIDTH 617 0
DWIDTH 6 0
BBX 5 9 1 0
BITMAP
70
00
F0
98
80
60
10
88
F0
ENDCHAR
STARTCHAR 0161
ENCODING 353
SWIDTH 617 0
DWIDTH 6 0
BBX 4 7 1 0
BITMAP
70
00
F0
80
70
90
F0
ENDCHAR
STARTCHAR 0162
ENCODING 354
SWIDTH 617 0
DWIDTH 6 0
BBX 6 9 0 -2
BITMAP
FC
10
10
10
10
10
10
10
10
ENDCHAR
STARTCHAR 0163
ENCODING 355
SWIDTH 617 0
DWIDTH 6 0
BBX 4 9 1 -2
BITMAP
40
40
F0
40
40
40
70
20
30
ENDCHAR
STARTCHAR 0164
ENCODING 356
SWIDTH 617 0
DWIDTH 6 0
BBX 6 9 0 0
BITMAP
38
00
FC
10
10
10
10
10
10
ENDCHAR
STARTCHAR 0165
ENCODING 357
SWIDTH 617 0
DWIDTH 6 0
BBX 5 9 1 0
BITMAP
08
08
50
40
F0
40
40
40
70
ENDCHAR
STARTCHAR 0166
ENCODING 358
SWIDTH 617 0
DWIDTH 6 0
BBX 6 7 0 0
BITMAP
FC
10
78
10
10
10
10
ENDCHAR
STARTCHAR 0167
ENCODING 359
SWIDTH 617 0
DWIDTH 6 0
BBX 4 7 1 0
BITMAP
40
40
F0
E0
40
40
70
ENDCHAR
STARTCHAR 0168
ENCODING 360
SWIDTH 617 0
DWIDTH 6 0
BBX 4 9 1 0
BITMAP
F0
00
90
90
90
90
90
90
F0
ENDCHAR
STARTCHAR 0169
ENCODING 361
SWIDTH 617 0
DWIDTH 6 0
BBX 4 7 1 0
BITMAP
F0
00
90
90
90
90
F0
ENDCHAR
STARTCHAR 016A
ENCODING 362
SWIDTH 617 0
DWIDTH 6 0
BBX 4 9 1 0
BITMAP
F0
00
90
90
90
90
90
90
F0
ENDCHAR
STARTCHAR 016B
ENCODING 363
SWIDTH 617 0
DWIDTH 6 0
BBX 4 7 1 0
BITMAP
F0
00
90
90
90
90
F0
ENDCHAR
STARTCHAR 016C
ENCODING 364
SWIDTH 617 0
DWIDTH 6 0
BBX 4 9 1 0
BITMAP
70
00
90
90
90
90
90
90
F0
ENDCHAR
STARTCHAR 016D
ENCODING 365
SWIDTH 617 0
DWIDTH 6 0
BBX 4 7 1 0
BITMAP
60
00
90
90
90
90
F0
ENDCHAR
STARTCHAR 016E
ENCODING 366
SWIDTH 617 0
DWIDTH 6 0
BBX 4 9 1 0
BITMAP
60
20
90
90
90
90
90
90
F0
ENDCHAR
STARTCHAR 016F
ENCODING 367
SWIDTH 617 0
DWIDTH 6 0
BBX 4 7 1 0
BITMAP
60
40
90
90
90
90
F0
ENDCHAR
STARTCHAR 0170
ENCODING 368
SWIDTH 617 0
DWIDTH 6 0
BBX 5 9 1 0
BITMAP
78
00
90
90
90
90
90
90
F0
ENDCHAR
STARTCHAR 0171
ENCODING 369
SWIDTH 617 0
DWIDTH 6 0
BBX 4 7 1 0
BITMAP
70
00
90
90
90
90
F0
ENDCHAR
STARTCHAR 0172
ENCODING 370
SWIDTH 617 0
DWIDTH 6 0
BBX 4 9 1 -2
BITMAP
90
90
90
90
90
90
F0
20
20
ENDCHAR
STARTCHAR 0173
ENCODING 371
SWIDTH 617 0
DWIDTH 6 0
BBX 4 7 1 -2
BITMAP
90
90
90
90
F0
10
10
ENDCHAR
STARTCHAR 0174
ENCODING 372
SWIDTH 617 0
DWIDTH 6 0
BBX 6 9 0 0
BITMAP
38
00
94
B4
74
78
68
48
48
ENDCHAR
STARTCHAR 0175
ENCODING 373
SWIDTH 617 0
DWIDTH 6 0
BBX 6 7 0 0
BITMAP
38
00
94
B4
78
48
48
ENDCHAR
STARTCHAR 0176
ENCODING 374
SWIDTH 617 0
DWIDTH 6 0
BBX 6 9 0 0
BITMAP
70
04
C8
48
30
30
20
20
20
ENDCHAR
STARTCHAR 0177
ENCODING 375
SWIDTH 617 0
DWIDTH 6 0
BBX 6 9 0 -2
BITMAP
38
84
48
48
30
30
30
20
60
ENDCHAR
STARTCHAR 0178
ENCODING 376
SWIDTH 617 0
DWIDTH 6 0
BBX 6 9 0 0
BITMAP
58
04
C8
48
30
30
20
20
20
ENDCHAR
STARTCHAR 0179
ENCODING 377
SWIDTH 617 0
DWIDTH 6 0
BBX 4 9 1 0
BITMAP
30
00
F0
10
20
40
40
80
F0
ENDCHAR
STARTCHAR 017A
ENCODING 378
SWIDTH 617 0
DWIDTH 6 0
BBX 4 7 1 0
BITMAP
30
00
F0
20
40
C0
F0
ENDCHAR
STARTCHAR 017B
ENCODING 379
SWIDTH 617 0
DWIDTH 6 0
BBX 4 9 1 0
BITMAP
20
00
F0
10
20
40
40
80
F0
ENDCHAR
STARTCHAR 017C
ENCODING 380
SWIDTH 617 0
DWIDTH 6 0
BBX 4 7 1 0
BITMAP
20
00
F0
20
40
C0
F0
ENDCHAR
STARTCHAR 017D
ENCODING 381
SWIDTH 617 0
DWIDTH 6 0
BBX 4 9 1 0
BITMAP
70
00
F0
10
20
40
40
80
F0
ENDCHAR
STARTCHAR 017E
ENCODING 382
SWIDTH 617 0
DWIDTH 6 0
BBX 4 7 1 0
BITMAP
70
00
F0
20
40
C0
F0
ENDCHAR
STARTCHAR 017F
ENCODING 383
SWIDTH 617 0
DWIDTH 6 0
BBX 3 8 2 0
BITMAP
60
80
80
80
80
80
80
80
ENDCHAR
STARTCHAR 0192
ENCODING 402
SWIDTH 617 0
DWIDTH 6 0
BBX 4 10 1 -2
BITMAP
30
20
40
60
40
40
40
40
40
C0
ENDCHAR
STARTCHAR 01A0
ENCODING 416
SWIDTH 617 0
DWIDTH 6 0
BBX 6 7 0 0
BITMAP
7C
48
88
88
88
48
70
ENDCHAR
STARTCHAR 01A1
ENCODING 417
SWIDTH 617 0
DWIDTH 6 0
BBX 5 6 1 0
BITMAP
08
F0
90
90
90
F0
ENDCHAR
STARTCHAR 01AF
ENCODING 431
SWIDTH 617 0
DWIDTH 6 0
BBX 6 7 1 0
BITMAP
94
98
90
90
90
90
F0
ENDCHAR
STARTCHAR 01B0
ENCODING 432
SWIDTH 617 0
DWIDTH 6 0
BBX 6 6 1 0
BITMAP
04
98
90
90
90
F0
ENDCHAR
STARTCHAR 01F0
ENCODING 496
SWIDTH 617 0
DWIDTH 6 0
BBX 4 9 1 -2
BITMAP
70
00
E0
20
20
20
20
20
C0
ENDCHAR
STARTCHAR 01FA
ENCODING 506
SWIDTH 617 0
DWIDTH 6 0
BBX 6 10 0 0
BITMAP
18
30
10
30
30
30
48
78
48
C4
ENDCHAR
STARTCHAR 01FB
ENCODING 507
SWIDTH 617 0
DWIDTH 6 0
BBX 4 8 1 0
BITMAP
30
60
20
D0
10
F0
90
F0
ENDCHAR
STARTCHAR 01FC
ENCODING 508
SWIDTH 617 0
DWIDTH 6 0
BBX 6 9 0 0
BITMAP
18
00
1C
30
30
5C
70
50
9C
ENDCHAR
STARTCHAR 01FD
ENCODING 509
SWIDTH 617 0
DWIDTH 6 0
BBX 6 7 0 0
BITMAP
18
00
FC
24
7C
A0
FC
ENDCHAR
STARTCHAR 01FE
ENCODING 510
SWIDTH 617 0
DWIDTH 6 0
BBX 6 9 0 0
BITMAP
18
04
78
48
98
98
A8
48
F0
ENDCHAR
STARTCHAR 01FF
ENCODING 511
SWIDTH 617 0
DWIDTH 6 0
BBX 4 8 1 -1
BITMAP
60
10
F0
B0
D0
D0
F0
80
ENDCHAR
STARTCHAR 0218
ENCODING 536
SWIDTH 617 0
DWIDTH 6 0
BBX 5 9 1 -2
BITMAP
F0
98
80
60
10
88
F0
20
40
ENDCHAR
STARTCHAR 0219
ENCODING 537
SWIDTH 617 0
DWIDTH 6 0
BBX 4 7 1 -2
BITMAP
F0
80
70
90
F0
20
40
ENDCHAR
STARTCHAR 021A
ENCODING 538
SWIDTH 617 0
DWIDTH 6 0
BBX 6 9 0 -2
BITMAP
FC
10
10
10
10
10
10
10
20
ENDCHAR
STARTCHAR 021B
ENCODING 539
SWIDTH 617 0
DWIDTH 6 0
BBX 4 9 1 -2
BITMAP
40
40
F0
40
40
40
70
20
20
ENDCHAR
STARTCHAR 0237
ENCODING 567
SWIDTH 617 0
DWIDTH 6 0
BBX 3 7 1 -2
BITMAP
E0
20
20
20
20
20
C0
ENDCHAR
STARTCHAR 0259
ENCODING 601
SWIDTH 617 0
DWIDTH 6 0
BBX 4 5 1 0
BITMAP
F0
10
F0
90
F0
ENDCHAR
STARTCHAR 02BC
ENCODING 700
SWIDTH 617 0
DWIDTH 6 0
BBX 2 3 2 5
BITMAP
40
40
80
ENDCHAR
STARTCHAR 02C6
ENCODING 710
SWIDTH 617 0
DWIDTH 6 0
BBX 3 1 1 6
BITMAP
E0
ENDCHAR
STARTCHAR 02C7
ENCODING 711
SWIDTH 617 0
DWIDTH 6 0
BBX 4 1 1 6
BITMAP
F0
ENDCHAR
STARTCHAR 02C9
ENCODING 713
SWIDTH 617 0
DWIDTH 6 0
BBX 4 1 1 6
BITMAP
F0
ENDCHAR
STARTCHAR 02D8
ENCODING 728
SWIDTH 617 0
DWIDTH 6 0
BBX 2 1 2 6
BITMAP
C0
ENDCHAR
STARTCHAR 02D9
ENCODING 729
SWIDTH 617 0
DWIDTH 6 0
BBX 2 1 2 6
BITMAP
C0
ENDCHAR
STARTCHAR 02DA
ENCODING 730
SWIDTH 617 0
DWIDTH 6 0
BBX 2 2 2 5
BITMAP
C0
80
ENDCHAR
STARTCHAR 02DB
ENCODING 731
SWIDTH 617 0
DWIDTH 6 0
BBX 2 2 2 -2
BITMAP
C0
C0
ENDCHAR
STARTCHAR 02DC
ENCODING 732
SWIDTH 617 0
DWIDTH 6 0
BBX 3 1 1 6
BITMAP
E0
ENDCHAR
STARTCHAR 02DD
ENCODING 733
SWIDTH 617 0
DWIDTH 6 0
BBX 4 1 1 6
BITMAP
F0
ENDCHAR
STARTCHAR 02F3
ENCODING 755
SWIDTH 617 0
DWIDTH 6 0
BBX 2 2 2 -2
BITMAP
80
C0
ENDCHAR
STARTCHAR 0300
ENCODING 768
SWIDTH 617 0
DWIDTH 6 0
BBX 1 2 -4 6
BITMAP
80
80
ENDCHAR
STARTCHAR 0301
ENCODING 769
SWIDTH 617 0
DWIDTH 6 0
BBX 1 2 -3 6
BITMAP
80
80
ENDCHAR
STARTCHAR 0303
ENCODING 771
SWIDTH 617 0
DWIDTH 6 0
BBX 3 1 -4 6
BITMAP
E0
ENDCHAR
STARTCHAR 0309
ENCODING 777
SWIDTH 617 0
DWIDTH 6 0
BBX 1 2 -3 6
BITMAP
80
80
ENDCHAR
STARTCHAR 030F
ENCODING 783
SWIDTH 617 0
DWIDTH 6 0
BBX 4 1 -5 6
BITMAP
F0
ENDCHAR
STARTCHAR 0323
ENCODING 803
SWIDTH 617 0
DWIDTH 6 0
BBX 2 1 -4 -2
BITMAP
C0
ENDCHAR
STARTCHAR 0384
ENCODING 900
SWIDTH 617 0
DWIDTH 6 0
BBX 1 2 3 6
BITMAP
80
80
ENDCHAR
STARTCHAR 0385
ENCODING 901
SWIDTH 617 0
DWIDTH 6 0
BBX 4 2 1 6
BITMAP
20
90
ENDCHAR
STARTCHAR 0386
ENCODING 902
SWIDTH 617 0
DWIDTH 6 0
BBX 6 8 0 0
BITMAP
40
70
30
30
48
78
48
C4
ENDCHAR
STARTCHAR 0387
ENCODING 903
SWIDTH 617 0
DWIDTH 6 0
BBX 1 1 3 3
BITMAP
80
ENDCHAR
STARTCHAR 0388
ENCODING 904
SWIDTH 617 0
DWIDTH 6 0
BBX 6 8 0 0
BITMAP
80
F8
40
40
78
40
40
7C
ENDCHAR
STARTCHAR 0389
ENCODING 905
SWIDTH 617 0
DWIDTH 6 0
BBX 6 8 0 0
BITMAP
80
C4
44
44
7C
44
44
44
ENDCHAR
STARTCHAR 038A
ENCODING 906
SWIDTH 617 0
DWIDTH 6 0
BBX 5 8 0 0
BITMAP
80
F8
10
10
10
10
10
78
ENDCHAR
STARTCHAR 038C
ENCODING 908
SWIDTH 617 0
DWIDTH 6 0
BBX 6 8 0 0
BITMAP
80
F8
48
44
44
44
48
38
ENDCHAR
STARTCHAR 038E
ENCODING 910
SWIDTH 617 0
DWIDTH 6 0
BBX 7 8 -1 0
BITMAP
C0
A2
24
14
18
08
08
08
ENDCHAR
STARTCHAR 038F
ENCODING 911
SWIDTH 617 0
DWIDTH 6 0
BBX 6 8 0 0
BITMAP
80
F8
48
84
84
48
48
7C
ENDCHAR
STARTCHAR 0390
ENCODING 912
SWIDTH 617 0
DWIDTH 6 0
BBX 4 8 1 0
BITMAP
20
90
00
E0
20
20
20
30
ENDCHAR
STARTCHAR 0391
ENCODING 913
SWIDTH 617 0
DWIDTH 6 0
BBX 6 7 0 0
BITMAP
30
30
30
48
78
48
C4
ENDCHAR
STARTCHAR 0392
ENCODING 914
SWIDTH 617 0
DWIDTH 6 0
BBX 4 7 1 0
BITMAP
F0
90
90
F0
90
90
F0
ENDCHAR
STARTCHAR 0393
ENCODING 915
SWIDTH 617 0
DWIDTH 6 0
BBX 4 7 1 0
BITMAP
F0
80
80
80
80
80
80
ENDCHAR
STARTCHAR 0394
ENCODING 916
SWIDTH 617 0
DWIDTH 6 0
BBX 6 7 0 0
BITMAP
10
30
30
48
48
48
FC
ENDCHAR
STARTCHAR 0395
ENCODING 917
SWIDTH 617 0
DWIDTH 6 0
BBX 4 7 1 0
BITMAP
F0
80
80
F0
80
80
F0
ENDCHAR
STARTCHAR 0396
ENCODING 918
SWIDTH 617 0
DWIDTH 6 0
BBX 4 7 1 0
BITMAP
F0
10
20
40
40
80
F0
ENDCHAR
STARTCHAR 0397
ENCODING 919
SWIDTH 617 0
DWIDTH 6 0
BBX 4 7 1 0
BITMAP
90
90
90
F0
90
90
90
ENDCHAR
STARTCHAR 0398
ENCODING 920
SWIDTH 617 0
DWIDTH 6 0
BBX 4 7 1 0
BITMAP
F0
90
90
F0
90
90
F0
ENDCHAR
STARTCHAR 0399
ENCODING 921
SWIDTH 617 0
DWIDTH 6 0
BBX 4 7 1 0
BITMAP
F0
40
40
40
40
40
F0
ENDCHAR
STARTCHAR 039A
ENCODING 922
SWIDTH 617 0
DWIDTH 6 0
BBX 5 7 1 0
BITMAP
98
A0
E0
C0
A0
90
98
ENDCHAR
STARTCHAR 039B
ENCODING 923
SWIDTH 617 0
DWIDTH 6 0
BBX 6 7 0 0
BITMAP
30
30
30
48
48
48
84
ENDCHAR
STARTCHAR 039C
ENCODING 924
SWIDTH 617 0
DWIDTH 6 0
BBX 4 7 1 0
BITMAP
90
90
F0
F0
D0
90
90
ENDCHAR
STARTCHAR 039D
ENCODING 925
SWIDTH 617 0
DWIDTH 6 0
BBX 4 7 1 0
BITMAP
90
90
D0
B0
B0
90
90
ENDCHAR
STARTCHAR 039E
ENCODING 926
SWIDTH 617 0
DWIDTH 6 0
BBX 4 7 1 0
BITMAP
F0
00
00
F0
00
00
F0
ENDCHAR
STARTCHAR 039F
ENCODING 927
SWIDTH 617 0
DWIDTH 6 0
BBX 4 7 1 0
BITMAP
F0
90
90
90
90
90
F0
ENDCHAR
STARTCHAR 03A0
ENCODING 928
SWIDTH 617 0
DWIDTH 6 0
BBX 4 7 1 0
BITMAP
F0
90
90
90
90
90
90
ENDCHAR
STARTCHAR 03A1
ENCODING 929
SWIDTH 617 0
DWIDTH 6 0
BBX 5 7 1 0
BITMAP
F0
88
88
F0
80
80
80
ENDCHAR
STARTCHAR 03A3
ENCODING 931
SWIDTH 617 0
DWIDTH 6 0
BBX 5 7 1 0
BITMAP
F0
80
40
20
40
80
F8
ENDCHAR
STARTCHAR 03A4
ENCODING 932
SWIDTH 617 0
DWIDTH 6 0
BBX 6 7 0 0
BITMAP
FC
10
10
10
10
10
10
ENDCHAR
STARTCHAR 03A5
ENCODING 933
SWIDTH 617 0
DWIDTH 6 0
BBX 6 7 0 0
BITMAP
CC
48
30
30
20
20
20
ENDCHAR
STARTCHAR 03A6
ENCODING 934
SWIDTH 617 0
DWIDTH 6 0
BBX 6 7 0 0
BITMAP
20
78
A4
A4
A4
78
20
ENDCHAR
STARTCHAR 03A7
ENCODING 935
SWIDTH 617 0
DWIDTH 6 0
BBX 6 7 0 0
BITMAP
CC
48
30
10
30
48
CC
ENDCHAR
STARTCHAR 03A8
ENCODING 936
SWIDTH 617 0
DWIDTH 6 0
BBX 6 7 0 0
BITMAP
94
94
94
54
58
30
10
ENDCHAR
STARTCHAR 03A9
ENCODING 937
SWIDTH 617 0
DWIDTH 6 0
BBX 6 7 0 0
BITMAP
78
48
84
84
48
48
FC
ENDCHAR
STARTCHAR 03AA
ENCODING 938
SWIDTH 617 0
DWIDTH 6 0
BBX 4 9 1 0
BITMAP
A0
00
F0
40
40
40
40
40
F0
ENDCHAR
STARTCHAR 03AB
ENCODING 939
SWIDTH 617 0
DWIDTH 6 0
BBX 6 9 0 0
BITMAP
58
04
C8
48
30
30
20
20
20
ENDCHAR
STARTCHAR 03AC
ENCODING 940
SWIDTH 617 0
DWIDTH 6 0
BBX 5 8 1 0
BITMAP
20
20
00
F0
90
90
90
F8
ENDCHAR
STARTCHAR 03AD
ENCODING 941
SWIDTH 617 0
DWIDTH 6 0
BBX 4 8 1 0
BITMAP
20
20
00
F0
80
E0
90
F0
ENDCHAR
STARTCHAR 03AE
ENCODING 942
SWIDTH 617 0
DWIDTH 6 0
BBX 4 10 1 -2
BITMAP
20
20
00
F0
90
90
90
90
10
10
ENDCHAR
STARTCHAR 03AF
ENCODING 943
SWIDTH 617 0
DWIDTH 6 0
BBX 4 8 1 0
BITMAP
20
20
00
E0
20
20
20
30
ENDCHAR
STARTCHAR 03B0
ENCODING 944
SWIDTH 617 0
DWIDTH 6 0
BBX 4 8 1 0
BITMAP
60
B0
00
90
90
90
90
F0
ENDCHAR
STARTCHAR 03B1
ENCODING 945
SWIDTH 617 0
DWIDTH 6 0
BBX 5 5 1 0
BITMAP
F0
90
90
90
F8
ENDCHAR
STARTCHAR 03B2
ENCODING 946
SWIDTH 617 0
DWIDTH 6 0
BBX 4 9 1 -2
BITMAP
F0
90
90
B0
90
90
F0
80
80
ENDCHAR
STARTCHAR 03B3
ENCODING 947
SWIDTH 617 0
DWIDTH 6 0
BBX 6 7 0 -2
BITMAP
CC
48
28
30
30
10
10
ENDCHAR
STARTCHAR 03B4
ENCODING 948
SWIDTH 617 0
DWIDTH 6 0
BBX 5 8 1 0
BITMAP
60
90
C0
70
90
88
90
F0
ENDCHAR
STARTCHAR 03B5
ENCODING 949
SWIDTH 617 0
DWIDTH 6 0
BBX 4 5 1 0
BITMAP
F0
80
E0
90
F0
ENDCHAR
STARTCHAR 03B6
ENCODING 950
SWIDTH 617 0
DWIDTH 6 0
BBX 4 9 1 -2
BITMAP
F0
20
40
80
80
80
60
10
10
ENDCHAR
STARTCHAR 03B7
ENCODING 951
SWIDTH 617 0
DWIDTH 6 0
BBX 4 7 1 -2
BITMAP
F0
90
90
90
90
10
10
ENDCHAR
STARTCHAR 03B8
ENCODING 952
SWIDTH 617 0
DWIDTH 6 0
BBX 4 7 1 0
BITMAP
F0
90
90
F0
90
90
60
ENDCHAR
STARTCHAR 03B9
ENCODING 953
SWIDTH 617 0
DWIDTH 6 0
BBX 4 5 1 0
BITMAP
E0
20
20
20
30
ENDCHAR
STARTCHAR 03BA
ENCODING 954
SWIDTH 617 0
DWIDTH 6 0
BBX 5 5 1 0
BITMAP
90
A0
E0
A0
98
ENDCHAR
STARTCHAR 03BB
ENCODING 955
SWIDTH 617 0
DWIDTH 6 0
BBX 5 7 0 0
BITMAP
60
20
20
30
50
48
88
ENDCHAR
STARTCHAR 03BC
ENCODING 956
SWIDTH 617 0
DWIDTH 6 0
BBX 4 7 1 -2
BITMAP
90
90
90
90
F0
80
80
ENDCHAR
STARTCHAR 03BD
ENCODING 957
SWIDTH 617 0
DWIDTH 6 0
BBX 6 5 0 0
BITMAP
CC
48
30
30
30
ENDCHAR
STARTCHAR 03BE
ENCODING 958
SWIDTH 617 0
DWIDTH 6 0
BBX 4 9 1 -2
BITMAP
70
80
70
C0
80
80
60
10
10
ENDCHAR
STARTCHAR 03BF
ENCODING 959
SWIDTH 617 0
DWIDTH 6 0
BBX 4 5 1 0
BITMAP
F0
90
90
90
F0
ENDCHAR
STARTCHAR 03C0
ENCODING 960
SWIDTH 617 0
DWIDTH 6 0
BBX 6 5 0 0
BITMAP
F8
48
48
48
4C
ENDCHAR
STARTCHAR 03C1
ENCODING 961
SWIDTH 617 0
DWIDTH 6 0
BBX 4 7 1 -2
BITMAP
F0
90
90
90
F0
80
80
ENDCHAR
STARTCHAR 03C2
ENCODING 962
SWIDTH 617 0
DWIDTH 6 0
BBX 4 7 1 -2
BITMAP
F0
90
80
80
60
10
30
ENDCHAR
STARTCHAR 03C3
ENCODING 963
SWIDTH 617 0
DWIDTH 6 0
BBX 5 5 1 0
BITMAP
F8
90
90
90
E0
ENDCHAR
STARTCHAR 03C4
ENCODING 964
SWIDTH 617 0
DWIDTH 6 0
BBX 4 5 1 0
BITMAP
F0
20
20
20
30
ENDCHAR
STARTCHAR 03C5
ENCODING 965
SWIDTH 617 0
DWIDTH 6 0
BBX 4 5 1 0
BITMAP
90
90
90
90
F0
ENDCHAR
STARTCHAR 03C6
ENCODING 966
SWIDTH 617 0
DWIDTH 6 0
BBX 5 7 1 -2
BITMAP
B0
A8
A8
B0
F0
20
20
ENDCHAR
STARTCHAR 03C7
ENCODING 967
SWIDTH 617 0
DWIDTH 6 0
BBX 5 5 1 0
BITMAP
98
60
60
60
98
ENDCHAR
STARTCHAR 03C8
ENCODING 968
SWIDTH 617 0
DWIDTH 6 0
BBX 6 7 0 -2
BITMAP
A8
A4
A4
68
78
20
20
ENDCHAR
STARTCHAR 03C9
ENCODING 969
SWIDTH 617 0
DWIDTH 6 0
BBX 6 5 0 0
BITMAP
48
94
94
94
78
ENDCHAR
STARTCHAR 03CA
ENCODING 970
SWIDTH 617 0
DWIDTH 6 0
BBX 4 7 1 0
BITMAP
D0
00
E0
20
20
20
30
ENDCHAR
STARTCHAR 03CB
ENCODING 971
SWIDTH 617 0
DWIDTH 6 0
BBX 4 7 1 0
BITMAP
A0
00
90
90
90
90
F0
ENDCHAR
STARTCHAR 03CC
ENCODING 972
SWIDTH 617 0
DWIDTH 6 0
BBX 4 8 1 0
BITMAP
20
20
00
F0
90
90
90
F0
ENDCHAR
STARTCHAR 03CD
ENCODING 973
SWIDTH 617 0
DWIDTH 6 0
BBX 4 8 1 0
BITMAP
20
40
00
90
90
90
90
F0
ENDCHAR
STARTCHAR 03CE
ENCODING 974
SWIDTH 617 0
DWIDTH 6 0
BBX 6 8 0 0
BITMAP
10
10
00
48
94
94
94
78
ENDCHAR
STARTCHAR 03D1
ENCODING 977
SWIDTH 617 0
DWIDTH 6 0
BBX 5 7 1 0
BITMAP
70
50
50
B8
90
90
E0
ENDCHAR
STARTCHAR 03D2
ENCODING 978
SWIDTH 617 0
DWIDTH 6 0
BBX 6 7 0 0
BITMAP
CC
48
30
30
10
10
10
ENDCHAR
STARTCHAR 03D6
ENCODING 982
SWIDTH 617 0
DWIDTH 6 0
BBX 6 5 0 0
BITMAP
FC
A8
A4
A8
78
ENDCHAR
STARTCHAR 0400
ENCODING 1024
SWIDTH 617 0
DWIDTH 6 0
BBX 4 9 1 0
BITMAP
C0
00
F0
80
80
F0
80
80
F0
ENDCHAR
STARTCHAR 0401
ENCODING 1025
SWIDTH 617 0
DWIDTH 6 0
BBX 4 9 1 0
BITMAP
D0
00
F0
80
80
F0
80
80
F0
ENDCHAR
STARTCHAR 0402
ENCODING 1026
SWIDTH 617 0
DWIDTH 6 0
BBX 6 7 0 0
BITMAP
F8
20
20
38
24
24
28
ENDCHAR
STARTCHAR 0403
ENCODING 1027
SWIDTH 617 0
DWIDTH 6 0
BBX 4 9 1 0
BITMAP
30
00
F0
80
80
80
80
80
80
ENDCHAR
STARTCHAR 0404
ENCODING 1028
SWIDTH 617 0
DWIDTH 6 0
BBX 5 7 1 0
BITMAP
F0
98
80
E0
88
90
F0
ENDCHAR
STARTCHAR 0405
ENCODING 1029
SWIDTH 617 0
DWIDTH 6 0
BBX 5 7 1 0
BITMAP
F0
98
80
60
10
88
F0
ENDCHAR
STARTCHAR 0406
ENCODING 1030
SWIDTH 617 0
DWIDTH 6 0
BBX 4 7 1 0
BITMAP
F0
40
40
40
40
40
F0
ENDCHAR
STARTCHAR 0407
ENCODING 1031
SWIDTH 617 0
DWIDTH 6 0
BBX 4 9 1 0
BITMAP
A0
00
F0
40
40
40
40
40
F0
ENDCHAR
STARTCHAR 0408
ENCODING 1032
SWIDTH 617 0
DWIDTH 6 0
BBX 5 7 0 0
BITMAP
08
08
08
08
08
C8
70
ENDCHAR
STARTCHAR 0409
ENCODING 1033
SWIDTH 617 0
DWIDTH 6 0
BBX 6 7 0 0
BITMAP
70
50
50
58
54
54
98
ENDCHAR
STARTCHAR 040A
ENCODING 1034
SWIDTH 617 0
DWIDTH 6 0
BBX 5 7 1 0
BITMAP
A0
A0
A0
F0
A8
A8
B0
ENDCHAR
STARTCHAR 040B
ENCODING 1035
SWIDTH 617 0
DWIDTH 6 0
BBX 6 7 0 0
BITMAP
F8
20
20
38
24
24
24
ENDCHAR
STARTCHAR 040C
ENCODING 1036
SWIDTH 617 0
DWIDTH 6 0
BBX 5 9 1 0
BITMAP
30
08
90
A0
E0
C0
A0
90
98
ENDCHAR
STARTCHAR 040D
ENCODING 1037
SWIDTH 617 0
DWIDTH 6 0
BBX 4 9 1 0
BITMAP
C0
00
90
B0
B0
D0
D0
90
90
ENDCHAR
STARTCHAR 040E
ENCODING 1038
SWIDTH 617 0
DWIDTH 6 0
BBX 6 9 0 0
BITMAP
38
00
84
48
48
30
30
20
E0
ENDCHAR
STARTCHAR 040F
ENCODING 1039
SWIDTH 617 0
DWIDTH 6 0
BBX 4 9 1 -2
BITMAP
90
90
90
90
90
90
F0
20
20
ENDCHAR
STARTCHAR 0410
ENCODING 1040
SWIDTH 617 0
DWIDTH 6 0
BBX 6 7 0 0
BITMAP
30
30
30
48
78
48
C4
ENDCHAR
STARTCHAR 0411
ENCODING 1041
SWIDTH 617 0
DWIDTH 6 0
BBX 4 7 1 0
BITMAP
F0
80
80
F0
90
90
F0
ENDCHAR
STARTCHAR 0412
ENCODING 1042
SWIDTH 617 0
DWIDTH 6 0
BBX 4 7 1 0
BITMAP
F0
90
90
F0
90
90
F0
ENDCHAR
STARTCHAR 0413
ENCODING 1043
SWIDTH 617 0
DWIDTH 6 0
BBX 4 7 1 0
BITMAP
F0
80
80
80
80
80
80
ENDCHAR
STARTCHAR 0414
ENCODING 1044
SWIDTH 617 0
DWIDTH 6 0
BBX 6 9 0 -2
BITMAP
38
28
28
28
48
48
FC
84
84
ENDCHAR
STARTCHAR 0415
ENCODING 1045
SWIDTH 617 0
DWIDTH 6 0
BBX 4 7 1 0
BITMAP
F0
80
80
F0
80
80
F0
ENDCHAR
STARTCHAR 0416
ENCODING 1046
SWIDTH 617 0
DWIDTH 6 0
BBX 6 7 0 0
BITMAP
DC
58
58
78
58
58
94
ENDCHAR
STARTCHAR 0417
ENCODING 1047
SWIDTH 617 0
DWIDTH 6 0
BBX 6 7 0 0
BITMAP
78
48
08
38
04
84
78
ENDCHAR
STARTCHAR 0418
ENCODING 1048
SWIDTH 617 0
DWIDTH 6 0
BBX 4 7 1 0
BITMAP
90
B0
B0
D0
D0
90
90
ENDCHAR
STARTCHAR 0419
ENCODING 1049
SWIDTH 617 0
DWIDTH 6 0
BBX 4 9 1 0
BITMAP
E0
00
90
B0
B0
D0
D0
90
90
ENDCHAR
STARTCHAR 041A
ENCODING 1050
SWIDTH 617 0
DWIDTH 6 0
BBX 5 7 1 0
BITMAP
98
90
A0
C0
A0
90
98
ENDCHAR
STARTCHAR 041B
ENCODING 1051
SWIDTH 617 0
DWIDTH 6 0
BBX 5 7 0 0
BITMAP
78
48
48
48
48
48
C8
ENDCHAR
STARTCHAR 041C
ENCODING 1052
SWIDTH 617 0
DWIDTH 6 0
BBX 4 7 1 0
BITMAP
90
90
F0
F0
D0
90
90
ENDCHAR
STARTCHAR 041D
ENCODING 1053
SWIDTH 617 0
DWIDTH 6 0
BBX 4 7 1 0
BITMAP
90
90
90
F0
90
90
90
ENDCHAR
STARTCHAR 041E
ENCODING 1054
SWIDTH 617 0
DWIDTH 6 0
BBX 4 7 1 0
BITMAP
F0
90
90
90
90
90
F0
ENDCHAR
STARTCHAR 041F
ENCODING 1055
SWIDTH 617 0
DWIDTH 6 0
BBX 4 7 1 0
BITMAP
F0
90
90
90
90
90
90
ENDCHAR
STARTCHAR 0420
ENCODING 1056
SWIDTH 617 0
DWIDTH 6 0
BBX 5 7 1 0
BITMAP
F0
88
88
F0
80
80
80
ENDCHAR
STARTCHAR 0421
ENCODING 1057
SWIDTH 617 0
DWIDTH 6 0
BBX 4 7 1 0
BITMAP
F0
90
80
80
80
90
F0
ENDCHAR
STARTCHAR 0422
ENCODING 1058
SWIDTH 617 0
DWIDTH 6 0
BBX 6 7 0 0
BITMAP
FC
10
10
10
10
10
10
ENDCHAR
STARTCHAR 0423
ENCODING 1059
SWIDTH 617 0
DWIDTH 6 0
BBX 6 7 0 0
BITMAP
84
48
48
30
30
20
E0
ENDCHAR
STARTCHAR 0424
ENCODING 1060
SWIDTH 617 0
DWIDTH 6 0
BBX 6 7 0 0
BITMAP
20
78
A4
A4
A4
78
20
ENDCHAR
STARTCHAR 0425
ENCODING 1061
SWIDTH 617 0
DWIDTH 6 0
BBX 6 7 0 0
BITMAP
CC
48
30
10
30
48
CC
ENDCHAR
STARTCHAR 0426
ENCODING 1062
SWIDTH 617 0
DWIDTH 6 0
BBX 5 9 1 -2
BITMAP
90
90
90
90
90
90
F8
08
08
ENDCHAR
STARTCHAR 0427
ENCODING 1063
SWIDTH 617 0
DWIDTH 6 0
BBX 4 7 1 0
BITMAP
90
90
90
F0
10
10
10
ENDCHAR
STARTCHAR 0428
ENCODING 1064
SWIDTH 617 0
DWIDTH 6 0
BBX 4 7 1 0
BITMAP
D0
D0
D0
D0
D0
D0
F0
ENDCHAR
STARTCHAR 0429
ENCODING 1065
SWIDTH 617 0
DWIDTH 6 0
BBX 5 9 1 -2
BITMAP
D0
D0
D0
D0
D0
D0
F8
08
08
ENDCHAR
STARTCHAR 042A
ENCODING 1066
SWIDTH 617 0
DWIDTH 6 0
BBX 6 7 0 0
BITMAP
E0
20
20
38
24
24
38
ENDCHAR
STARTCHAR 042B
ENCODING 1067
SWIDTH 617 0
DWIDTH 6 0
BBX 4 7 1 0
BITMAP
90
90
90
F0
B0
B0
D0
ENDCHAR
STARTCHAR 042C
ENCODING 1068
SWIDTH 617 0
DWIDTH 6 0
BBX 4 7 1 0
BITMAP
80
80
80
F0
90
90
F0
ENDCHAR
STARTCHAR 042D
ENCODING 1069
SWIDTH 617 0
DWIDTH 6 0
BBX 4 7 1 0
BITMAP
F0
90
10
70
10
90
F0
ENDCHAR
STARTCHAR 042E
ENCODING 1070
SWIDTH 617 0
DWIDTH 6 0
BBX 5 7 1 0
BITMAP
F0
D0
C8
C8
C8
D0
B0
ENDCHAR
STARTCHAR 042F
ENCODING 1071
SWIDTH 617 0
DWIDTH 6 0
BBX 5 7 0 0
BITMAP
78
48
48
78
28
48
C8
ENDCHAR
STARTCHAR 0430
ENCODING 1072
SWIDTH 617 0
DWIDTH 6 0
BBX 4 5 1 0
BITMAP
F0
10
F0
90
F0
ENDCHAR
STARTCHAR 0431
ENCODING 1073
SWIDTH 617 0
DWIDTH 6 0
BBX 4 8 1 0
BITMAP
10
70
80
F0
90
90
90
F0
ENDCHAR
STARTCHAR 0432
ENCODING 1074
SWIDTH 617 0
DWIDTH 6 0
BBX 4 5 1 0
BITMAP
F0
90
F0
90
F0
ENDCHAR
STARTCHAR 0433
ENCODING 1075
SWIDTH 617 0
DWIDTH 6 0
BBX 4 5 1 0
BITMAP
F0
80
80
80
80
ENDCHAR
STARTCHAR 0434
ENCODING 1076
SWIDTH 617 0
DWIDTH 6 0
BBX 6 7 0 -2
BITMAP
38
28
48
48
FC
84
84
ENDCHAR
STARTCHAR 0435
ENCODING 1077
SWIDTH 617 0
DWIDTH 6 0
BBX 4 5 1 0
BITMAP
F0
90
F0
80
F0
ENDCHAR
STARTCHAR 0436
ENCODING 1078
SWIDTH 617 0
DWIDTH 6 0
BBX 6 5 0 0
BITMAP
EC
68
78
68
A4
ENDCHAR
STARTCHAR 0437
ENCODING 1079
SWIDTH 617 0
DWIDTH 6 0
BBX 4 5 1 0
BITMAP
F0
10
70
90
F0
ENDCHAR
STARTCHAR 0438
ENCODING 1080
SWIDTH 617 0
DWIDTH 6 0
BBX 4 5 1 0
BITMAP
90
B0
D0
D0
90
ENDCHAR
STARTCHAR 0439
ENCODING 1081
SWIDTH 617 0
DWIDTH 6 0
BBX 4 7 1 0
BITMAP
E0
00
90
B0
D0
D0
90
ENDCHAR
STARTCHAR 043A
ENCODING 1082
SWIDTH 617 0
DWIDTH 6 0
BBX 5 5 1 0
BITMAP
98
A0
C0
A0
98
ENDCHAR
STARTCHAR 043B
ENCODING 1083
SWIDTH 617 0
DWIDTH 6 0
BBX 5 5 0 0
BITMAP
78
48
48
48
C8
ENDCHAR
STARTCHAR 043C
ENCODING 1084
SWIDTH 617 0
DWIDTH 6 0
BBX 4 5 1 0
BITMAP
90
90
F0
F0
D0
ENDCHAR
STARTCHAR 043D
ENCODING 1085
SWIDTH 617 0
DWIDTH 6 0
BBX 4 5 1 0
BITMAP
90
90
F0
90
90
ENDCHAR
STARTCHAR 043E
ENCODING 1086
SWIDTH 617 0
DWIDTH 6 0
BBX 4 5 1 0
BITMAP
F0
90
90
90
F0
ENDCHAR
STARTCHAR 043F
ENCODING 1087
SWIDTH 617 0
DWIDTH 6 0
BBX 4 5 1 0
BITMAP
F0
90
90
90
90
ENDCHAR
STARTCHAR 0440
ENCODING 1088
SWIDTH 617 0
DWIDTH 6 0
BBX 4 7 1 -2
BITMAP
F0
90
90
90
F0
80
80
ENDCHAR
STARTCHAR 0441
ENCODING 1089
SWIDTH 617 0
DWIDTH 6 0
BBX 4 5 1 0
BITMAP
F0
90
80
90
F0
ENDCHAR
STARTCHAR 0442
ENCODING 1090
SWIDTH 617 0
DWIDTH 6 0
BBX 5 5 1 0
BITMAP
F8
20
20
20
20
ENDCHAR
STARTCHAR 0443
ENCODING 1091
SWIDTH 617 0
DWIDTH 6 0
BBX 6 7 0 -2
BITMAP
CC
48
30
30
30
20
60
ENDCHAR
STARTCHAR 0444
ENCODING 1092
SWIDTH 617 0
DWIDTH 6 0
BBX 4 10 1 -2
BITMAP
40
40
40
F0
D0
D0
D0
F0
40
40
ENDCHAR
STARTCHAR 0445
ENCODING 1093
SWIDTH 617 0
DWIDTH 6 0
BBX 5 5 1 0
BITMAP
98
60
60
60
98
ENDCHAR
STARTCHAR 0446
ENCODING 1094
SWIDTH 617 0
DWIDTH 6 0
BBX 5 7 1 -2
BITMAP
90
90
90
90
F8
08
08
ENDCHAR
STARTCHAR 0447
ENCODING 1095
SWIDTH 617 0
DWIDTH 6 0
BBX 4 5 1 0
BITMAP
90
90
F0
10
10
ENDCHAR
STARTCHAR 0448
ENCODING 1096
SWIDTH 617 0
DWIDTH 6 0
BBX 4 5 1 0
BITMAP
D0
D0
D0
D0
F0
ENDCHAR
STARTCHAR 0449
ENCODING 1097
SWIDTH 617 0
DWIDTH 6 0
BBX 5 7 1 -2
BITMAP
D0
D0
D0
D0
F8
08
08
ENDCHAR
STARTCHAR 044A
ENCODING 1098
SWIDTH 617 0
DWIDTH 6 0
BBX 6 5 0 0
BITMAP
E0
20
38
24
38
ENDCHAR
STARTCHAR 044B
ENCODING 1099
SWIDTH 617 0
DWIDTH 6 0
BBX 4 5 1 0
BITMAP
90
90
F0
B0
D0
ENDCHAR
STARTCHAR 044C
ENCODING 1100
SWIDTH 617 0
DWIDTH 6 0
BBX 4 5 1 0
BITMAP
80
80
F0
90
F0
ENDCHAR
STARTCHAR 044D
ENCODING 1101
SWIDTH 617 0
DWIDTH 6 0
BBX 4 5 1 0
BITMAP
F0
10
70
90
E0
ENDCHAR
STARTCHAR 044E
ENCODING 1102
SWIDTH 617 0
DWIDTH 6 0
BBX 5 5 1 0
BITMAP
F0
C8
C8
C8
B0
ENDCHAR
STARTCHAR 044F
ENCODING 1103
SWIDTH 617 0
DWIDTH 6 0
BBX 5 5 0 0
BITMAP
78
48
78
48
C8
ENDCHAR
STARTCHAR 0450
ENCODING 1104
SWIDTH 617 0
DWIDTH 6 0
BBX 4 7 1 0
BITMAP
C0
00
F0
90
F0
80
F0
ENDCHAR
STARTCHAR 0451
ENCODING 1105
SWIDTH 617 0
DWIDTH 6 0
BBX 4 7 1 0
BITMAP
D0
00
F0
90
F0
80
F0
ENDCHAR
STARTCHAR 0452
ENCODING 1106
SWIDTH 617 0
DWIDTH 6 0
BBX 5 10 0 -2
BITMAP
40
E0
40
78
48
48
48
48
08
18
ENDCHAR
STARTCHAR 0453
ENCODING 1107
SWIDTH 617 0
DWIDTH 6 0
BBX 4 7 1 0
BITMAP
30
00
F0
80
80
80
80
ENDCHAR
STARTCHAR 0454
ENCODING 1108
SWIDTH 617 0
DWIDTH 6 0
BBX 4 5 1 0
BITMAP
F0
90
E0
90
F0
ENDCHAR
STARTCHAR 0455
ENCODING 1109
SWIDTH 617 0
DWIDTH 6 0
BBX 4 5 1 0
BITMAP
F0
80
70
90
F0
ENDCHAR
STARTCHAR 0456
ENCODING 1110
SWIDTH 617 0
DWIDTH 6 0
BBX 4 7 1 0
BITMAP
20
00
E0
20
20
20
F0
ENDCHAR
STARTCHAR 0457
ENCODING 1111
SWIDTH 617 0
DWIDTH 6 0
BBX 4 7 1 0
BITMAP
50
00
E0
20
20
20
F0
ENDCHAR
STARTCHAR 0458
ENCODING 1112
SWIDTH 617 0
DWIDTH 6 0
BBX 3 9 1 -2
BITMAP
20
00
E0
20
20
20
20
20
E0
ENDCHAR
STARTCHAR 0459
ENCODING 1113
SWIDTH 617 0
DWIDTH 6 0
BBX 6 5 0 0
BITMAP
70
50
5C
54
98
ENDCHAR
STARTCHAR 045A
ENCODING 1114
SWIDTH 617 0
DWIDTH 6 0
BBX 5 5 1 0
BITMAP
A0
A0
F8
A8
B0
ENDCHAR
STARTCHAR 045B
ENCODING 1115
SWIDTH 617 0
DWIDTH 6 0
BBX 5 8 0 0
BITMAP
40
E0
40
78
48
48
48
48
ENDCHAR
STARTCHAR 045C
ENCODING 1116
SWIDTH 617 0
DWIDTH 6 0
BBX 5 7 1 0
BITMAP
60
08
90
A0
C0
A0
98
ENDCHAR
STARTCHAR 045D
ENCODING 1117
SWIDTH 617 0
DWIDTH 6 0
BBX 4 7 1 0
BITMAP
C0
00
90
B0
D0
D0
90
ENDCHAR
STARTCHAR 045E
ENCODING 1118
SWIDTH 617 0
DWIDTH 6 0
BBX 6 9 0 -2
BITMAP
38
84
48
48
30
30
30
20
60
ENDCHAR
STARTCHAR 045F
ENCODING 1119
SWIDTH 617 0
DWIDTH 6 0
BBX 4 7 1 -2
BITMAP
90
90
90
90
F0
20
20
ENDCHAR
STARTCHAR 0460
ENCODING 1120
SWIDTH 617 0
DWIDTH 6 0
BBX 5 7 1 0
BITMAP
A8
A8
A8
A8
A8
A8
F0
ENDCHAR
STARTCHAR 0461
ENCODING 1121
SWIDTH 617 0
DWIDTH 6 0
BBX 6 5 0 0
BITMAP
94
94
94
94
78
ENDCHAR
STARTCHAR 0462
ENCODING 1122
SWIDTH 617 0
DWIDTH 6 0
BBX 5 7 0 0
BITMAP
40
E0
40
78
48
48
78
ENDCHAR
STARTCHAR 0463
ENCODING 1123
SWIDTH 617 0
DWIDTH 6 0
BBX 5 8 0 0
BITMAP
40
40
F0
40
40
78
48
78
ENDCHAR
STARTCHAR 0464
ENCODING 1124
SWIDTH 617 0
DWIDTH 6 0
BBX 5 7 1 0
BITMAP
B0
C8
C0
F0
C0
C8
B0
ENDCHAR
STARTCHAR 0465
ENCODING 1125
SWIDTH 617 0
DWIDTH 6 0
BBX 5 5 1 0
BITMAP
B8
C0
F0
C8
B0
ENDCHAR
STARTCHAR 0466
ENCODING 1126
SWIDTH 617 0
DWIDTH 6 0
BBX 6 7 0 0
BITMAP
30
30
30
48
78
68
A4
ENDCHAR
STARTCHAR 0467
ENCODING 1127
SWIDTH 617 0
DWIDTH 6 0
BBX 6 5 0 0
BITMAP
30
30
48
78
DC
ENDCHAR
STARTCHAR 0468
ENCODING 1128
SWIDTH 617 0
DWIDTH 6 0
BBX 5 7 1 0
BITMAP
A0
B0
B0
D0
F0
E8
E8
ENDCHAR
STARTCHAR 0469
ENCODING 1129
SWIDTH 617 0
DWIDTH 6 0
BBX 5 5 1 0
BITMAP
B0
B0
D0
F0
E8
ENDCHAR
STARTCHAR 046A
ENCODING 1130
SWIDTH 617 0
DWIDTH 6 0
BBX 6 7 0 0
BITMAP
78
48
30
78
94
94
94
ENDCHAR
STARTCHAR 046B
ENCODING 1131
SWIDTH 617 0
DWIDTH 6 0
BBX 4 5 1 0
BITMAP
F0
60
F0
D0
D0
ENDCHAR
STARTCHAR 046C
ENCODING 1132
SWIDTH 617 0
DWIDTH 6 0
BBX 6 7 0 0
BITMAP
BC
A8
98
F8
B4
B4
B4
ENDCHAR
STARTCHAR 046D
ENCODING 1133
SWIDTH 617 0
DWIDTH 6 0
BBX 6 5 0 0
BITMAP
BC
98
F8
B4
B4
ENDCHAR
STARTCHAR 046E
ENCODING 1134
SWIDTH 617 0
DWIDTH 6 0
BBX 4 11 1 -2
BITMAP
E0
00
F0
10
10
60
10
10
70
80
C0
ENDCHAR
STARTCHAR 046F
ENCODING 1135
SWIDTH 617 0
DWIDTH 6 0
BBX 4 10 1 -2
BITMAP
A0
40
00
F0
10
60
10
70
80
C0
ENDCHAR
STARTCHAR 0470
ENCODING 1136
SWIDTH 617 0
DWIDTH 6 0
BBX 6 7 0 0
BITMAP
94
94
94
54
58
30
10
ENDCHAR
STARTCHAR 0471
ENCODING 1137
SWIDTH 617 0
DWIDTH 6 0
BBX 6 7 0 -2
BITMAP
A8
A4
A4
68
78
20
20
ENDCHAR
STARTCHAR 0472
ENCODING 1138
SWIDTH 617 0
DWIDTH 6 0
BBX 5 7 0 0
BITMAP
78
48
88
F8
88
48
70
ENDCHAR
STARTCHAR 0473
ENCODING 1139
SWIDTH 617 0
DWIDTH 6 0
BBX 5 5 0 0
BITMAP
78
48
F8
48
70
ENDCHAR
STARTCHAR 0474
ENCODING 1140
SWIDTH 617 0
DWIDTH 6 0
BBX 6 7 0 0
BITMAP
84
48
48
48
30
30
30
ENDCHAR
STARTCHAR 0475
ENCODING 1141
SWIDTH 617 0
DWIDTH 6 0
BBX 5 5 0 0
BITMAP
C8
50
50
30
20
ENDCHAR
STARTCHAR 0476
ENCODING 1142
SWIDTH 617 0
DWIDTH 6 0
BBX 6 9 0 0
BITMAP
F0
00
84
48
48
48
30
30
30
ENDCHAR
STARTCHAR 0477
ENCODING 1143
SWIDTH 617 0
DWIDTH 6 0
BBX 5 7 0 0
BITMAP
F0
80
48
50
50
30
20
ENDCHAR
STARTCHAR 0478
ENCODING 1144
SWIDTH 617 0
DWIDTH 6 0
BBX 6 9 0 -2
BITMAP
60
A0
B4
AC
A8
A8
68
08
10
ENDCHAR
STARTCHAR 0479
ENCODING 1145
SWIDTH 617 0
DWIDTH 6 0
BBX 6 7 0 -2
BITMAP
74
AC
A8
A8
68
08
10
ENDCHAR
STARTCHAR 047A
ENCODING 1146
SWIDTH 617 0
DWIDTH 6 0
BBX 4 9 1 -1
BITMAP
40
F0
90
90
90
90
90
F0
40
ENDCHAR
STARTCHAR 047B
ENCODING 1147
SWIDTH 617 0
DWIDTH 6 0
BBX 4 7 1 -1
BITMAP
40
F0
90
90
90
F0
40
ENDCHAR
STARTCHAR 047C
ENCODING 1148
SWIDTH 617 0
DWIDTH 6 0
BBX 6 9 0 0
BITMAP
38
50
68
84
84
94
94
94
78
ENDCHAR
STARTCHAR 047D
ENCODING 1149
SWIDTH 617 0
DWIDTH 6 0
BBX 6 7 0 0
BITMAP
78
10
48
84
94
94
78
ENDCHAR
STARTCHAR 047E
ENCODING 1150
SWIDTH 617 0
DWIDTH 6 0
BBX 5 9 1 0
BITMAP
F0
00
A8
A8
A8
A8
A8
A8
F0
ENDCHAR
STARTCHAR 047F
ENCODING 1151
SWIDTH 617 0
DWIDTH 6 0
BBX 6 7 0 0
BITMAP
78
00
94
94
94
94
78
ENDCHAR
STARTCHAR 0480
ENCODING 1152
SWIDTH 617 0
DWIDTH 6 0
BBX 5 9 1 -2
BITMAP
70
90
88
80
80
80
60
20
20
ENDCHAR
STARTCHAR 0481
ENCODING 1153
SWIDTH 617 0
DWIDTH 6 0
BBX 4 7 1 -2
BITMAP
F0
90
80
80
60
20
20
ENDCHAR
STARTCHAR 0482
ENCODING 1154
SWIDTH 617 0
DWIDTH 6 0
BBX 5 7 1 0
BITMAP
10
50
30
28
C0
60
80
ENDCHAR
STARTCHAR 0483
ENCODING 1155
SWIDTH 617 0
DWIDTH 6 0
BBX 3 1 1 6
BITMAP
E0
ENDCHAR
STARTCHAR 0484
ENCODING 1156
SWIDTH 617 0
DWIDTH 6 0
BBX 4 2 1 6
BITMAP
20
D0
ENDCHAR
STARTCHAR 0485
ENCODING 1157
SWIDTH 617 0
DWIDTH 6 0
BBX 1 2 2 6
BITMAP
80
80
ENDCHAR
STARTCHAR 0486
ENCODING 1158
SWIDTH 617 0
DWIDTH 6 0
BBX 1 2 3 6
BITMAP
80
80
ENDCHAR
STARTCHAR 0488
ENCODING 1160
SWIDTH 617 0
DWIDTH 6 0
BBX 10 9 -2 -2
BITMAP
0C00
6180
0000
4000
A0C0
0000
6180
0000
0C00
ENDCHAR
STARTCHAR 0489
ENCODING 1161
SWIDTH 617 0
DWIDTH 6 0
BBX 9 9 -2 -2
BITMAP
0400
2880
2100
0000
C080
0000
2100
4500
0800
ENDCHAR
STARTCHAR 048A
ENCODING 1162
SWIDTH 617 0
DWIDTH 6 0
BBX 5 11 1 -2
BITMAP
E0
00
90
B0
B0
D0
D0
90
98
08
08
ENDCHAR
STARTCHAR 048B
ENCODING 1163
SWIDTH 617 0
DWIDTH 6 0
BBX 5 9 1 -2
BITMAP
E0
00
90
B0
D0
D0
98
08
08
ENDCHAR
STARTCHAR 048C
ENCODING 1164
SWIDTH 617 0
DWIDTH 6 0
BBX 5 7 0 0
BITMAP
40
E0
40
78
48
48
78
ENDCHAR
STARTCHAR 048D
ENCODING 1165
SWIDTH 617 0
DWIDTH 6 0
BBX 5 5 0 0
BITMAP
E0
40
78
48
78
ENDCHAR
STARTCHAR 048E
ENCODING 1166
SWIDTH 617 0
DWIDTH 6 0
BBX 5 7 1 0
BITMAP
F0
88
A8
F0
90
80
80
ENDCHAR
STARTCHAR 048F
ENCODING 1167
SWIDTH 617 0
DWIDTH 6 0
BBX 4 7 1 -2
BITMAP
F0
90
90
B0
F0
80
80
ENDCHAR
STARTCHAR 0490
ENCODING 1168
SWIDTH 617 0
DWIDTH 6 0
BBX 4 9 1 0
BITMAP
10
10
F0
80
80
80
80
80
80
ENDCHAR
STARTCHAR 0491
ENCODING 1169
SWIDTH 617 0
DWIDTH 6 0
BBX 4 7 1 0
BITMAP
10
10
E0
80
80
80
80
ENDCHAR
STARTCHAR 0492
ENCODING 1170
SWIDTH 617 0
DWIDTH 6 0
BBX 5 7 0 0
BITMAP
78
40
40
E0
40
40
40
ENDCHAR
STARTCHAR 0493
ENCODING 1171
SWIDTH 617 0
DWIDTH 6 0
BBX 5 5 0 0
BITMAP
78
40
E0
40
40
ENDCHAR
STARTCHAR 0494
ENCODING 1172
SWIDTH 617 0
DWIDTH 6 0
BBX 5 8 1 -1
BITMAP
F0
80
80
F0
90
88
88
30
ENDCHAR
STARTCHAR 0495
ENCODING 1173
SWIDTH 617 0
DWIDTH 6 0
BBX 4 6 1 -1
BITMAP
F0
80
F0
90
90
30
ENDCHAR
STARTCHAR 0496
ENCODING 1174
SWIDTH 617 0
DWIDTH 6 0
BBX 6 9 0 -2
BITMAP
DC
58
58
78
58
58
94
04
04
ENDCHAR
STARTCHAR 0497
ENCODING 1175
SWIDTH 617 0
DWIDTH 6 0
BBX 6 7 0 -2
BITMAP
EC
68
78
68
A4
04
04
ENDCHAR
STARTCHAR 0498
ENCODING 1176
SWIDTH 617 0
DWIDTH 6 0
BBX 6 10 0 -3
BITMAP
78
48
08
38
04
84
78
20
20
20
ENDCHAR
STARTCHAR 0499
ENCODING 1177
SWIDTH 617 0
DWIDTH 6 0
BBX 4 7 1 -2
BITMAP
F0
10
70
90
F0
20
20
ENDCHAR
STARTCHAR 049A
ENCODING 1178
SWIDTH 617 0
DWIDTH 6 0
BBX 5 9 1 -2
BITMAP
98
90
A0
C0
A0
90
98
08
08
ENDCHAR
STARTCHAR 049B
ENCODING 1179
SWIDTH 617 0
DWIDTH 6 0
BBX 5 7 1 -2
BITMAP
98
A0
C0
A0
98
08
08
ENDCHAR
STARTCHAR 049C
ENCODING 1180
SWIDTH 617 0
DWIDTH 6 0
BBX 5 7 1 0
BITMAP
98
90
E0
E0
D0
90
88
ENDCHAR
STARTCHAR 049D
ENCODING 1181
SWIDTH 617 0
DWIDTH 6 0
BBX 5 5 1 0
BITMAP
90
E0
E0
D0
98
ENDCHAR
STARTCHAR 049E
ENCODING 1182
SWIDTH 617 0
DWIDTH 6 0
BBX 6 7 0 0
BITMAP
4C
E8
50
60
50
48
4C
ENDCHAR
STARTCHAR 049F
ENCODING 1183
SWIDTH 617 0
DWIDTH 6 0
BBX 6 8 0 0
BITMAP
40
E0
40
58
70
70
50
4C
ENDCHAR
STARTCHAR 04A0
ENCODING 1184
SWIDTH 617 0
DWIDTH 6 0
BBX 6 7 0 0
BITMAP
EC
28
30
30
28
28
2C
ENDCHAR
STARTCHAR 04A1
ENCODING 1185
SWIDTH 617 0
DWIDTH 6 0
BBX 6 5 0 0
BITMAP
EC
28
30
28
2C
ENDCHAR
STARTCHAR 04A2
ENCODING 1186
SWIDTH 617 0
DWIDTH 6 0
BBX 5 9 1 -2
BITMAP
90
90
90
F0
90
90
98
08
08
ENDCHAR
STARTCHAR 04A3
ENCODING 1187
SWIDTH 617 0
DWIDTH 6 0
BBX 5 7 1 -2
BITMAP
90
90
F0
90
98
08
08
ENDCHAR
STARTCHAR 04A4
ENCODING 1188
SWIDTH 617 0
DWIDTH 6 0
BBX 5 7 1 0
BITMAP
B8
A0
A0
E0
A0
A0
A0
ENDCHAR
STARTCHAR 04A5
ENCODING 1189
SWIDTH 617 0
DWIDTH 6 0
BBX 5 5 1 0
BITMAP
B8
A0
E0
A0
A0
ENDCHAR
STARTCHAR 04A6
ENCODING 1190
SWIDTH 617 0
DWIDTH 6 0
BBX 5 8 1 -1
BITMAP
E0
A0
A0
B0
A8
A8
A8
10
ENDCHAR
STARTCHAR 04A7
ENCODING 1191
SWIDTH 617 0
DWIDTH 6 0
BBX 5 6 1 -1
BITMAP
E0
A0
B0
A8
A8
10
ENDCHAR
STARTCHAR 04A8
ENCODING 1192
SWIDTH 617 0
DWIDTH 6 0
BBX 4 7 1 0
BITMAP
B0
D0
D0
D0
D0
B0
F0
ENDCHAR
STARTCHAR 04A9
ENCODING 1193
SWIDTH 617 0
DWIDTH 6 0
BBX 6 5 0 0
BITMAP
58
A8
A8
58
7C
ENDCHAR
STARTCHAR 04AA
ENCODING 1194
SWIDTH 617 0
DWIDTH 6 0
BBX 4 9 1 -2
BITMAP
F0
90
80
80
80
90
F0
40
40
ENDCHAR
STARTCHAR 04AB
ENCODING 1195
SWIDTH 617 0
DWIDTH 6 0
BBX 4 7 1 -2
BITMAP
F0
90
80
90
F0
20
20
ENDCHAR
STARTCHAR 04AC
ENCODING 1196
SWIDTH 617 0
DWIDTH 6 0
BBX 6 9 0 -2
BITMAP
FC
10
10
10
10
10
10
10
10
ENDCHAR
STARTCHAR 04AD
ENCODING 1197
SWIDTH 617 0
DWIDTH 6 0
BBX 5 7 1 -2
BITMAP
F8
20
20
20
20
20
20
ENDCHAR
STARTCHAR 04AE
ENCODING 1198
SWIDTH 617 0
DWIDTH 6 0
BBX 6 7 0 0
BITMAP
CC
48
30
30
20
20
20
ENDCHAR
STARTCHAR 04AF
ENCODING 1199
SWIDTH 617 0
DWIDTH 6 0
BBX 6 7 0 -2
BITMAP
CC
48
28
30
30
10
10
ENDCHAR
STARTCHAR 04B0
ENCODING 1200
SWIDTH 617 0
DWIDTH 6 0
BBX 6 7 0 0
BITMAP
CC
48
30
30
68
20
20
ENDCHAR
STARTCHAR 04B1
ENCODING 1201
SWIDTH 617 0
DWIDTH 6 0
BBX 6 7 0 -2
BITMAP
CC
48
28
30
78
10
10
ENDCHAR
STARTCHAR 04B2
ENCODING 1202
SWIDTH 617 0
DWIDTH 6 0
BBX 6 9 0 -2
BITMAP
CC
48
30
10
30
48
CC
04
04
ENDCHAR
STARTCHAR 04B3
ENCODING 1203
SWIDTH 617 0
DWIDTH 6 0
BBX 5 7 1 -2
BITMAP
98
60
60
60
98
08
08
ENDCHAR
STARTCHAR 04B4
ENCODING 1204
SWIDTH 617 0
DWIDTH 6 0
BBX 6 9 0 -2
BITMAP
F8
28
28
28
28
28
3C
04
04
ENDCHAR
STARTCHAR 04B5
ENCODING 1205
SWIDTH 617 0
DWIDTH 6 0
BBX 6 7 0 -2
BITMAP
E8
48
48
48
7C
04
04
ENDCHAR
STARTCHAR 04B6
ENCODING 1206
SWIDTH 617 0
DWIDTH 6 0
BBX 5 9 1 -2
BITMAP
90
90
90
F0
10
10
18
08
08
ENDCHAR
STARTCHAR 04B7
ENCODING 1207
SWIDTH 617 0
DWIDTH 6 0
BBX 5 7 1 -2
BITMAP
90
90
F0
10
18
08
08
ENDCHAR
STARTCHAR 04B8
ENCODING 1208
SWIDTH 617 0
DWIDTH 6 0
BBX 4 7 1 0
BITMAP
90
90
D0
F0
50
10
10
ENDCHAR
STARTCHAR 04B9
ENCODING 1209
SWIDTH 617 0
DWIDTH 6 0
BBX 4 5 1 0
BITMAP
90
D0
F0
50
10
ENDCHAR
STARTCHAR 04BA
ENCODING 1210
SWIDTH 617 0
DWIDTH 6 0
BBX 4 7 1 0
BITMAP
80
80
A0
D0
90
90
90
ENDCHAR
STARTCHAR 04BB
ENCODING 1211
SWIDTH 617 0
DWIDTH 6 0
BBX 4 8 1 0
BITMAP
80
80
80
F0
90
90
90
90
ENDCHAR
STARTCHAR 04BC
ENCODING 1212
SWIDTH 617 0
DWIDTH 6 0
BBX 6 7 0 0
BITMAP
38
24
C4
7C
40
20
38
ENDCHAR
STARTCHAR 04BD
ENCODING 1213
SWIDTH 617 0
DWIDTH 6 0
BBX 6 5 0 0
BITMAP
38
C4
7C
20
3C
ENDCHAR
STARTCHAR 04BE
ENCODING 1214
SWIDTH 617 0
DWIDTH 6 0
BBX 6 9 0 -2
BITMAP
38
24
C4
7C
40
20
38
10
10
ENDCHAR
STARTCHAR 04BF
ENCODING 1215
SWIDTH 617 0
DWIDTH 6 0
BBX 6 7 0 -2
BITMAP
38
C4
7C
20
3C
10
10
ENDCHAR
STARTCHAR 04C0
ENCODING 1216
SWIDTH 617 0
DWIDTH 6 0
BBX 4 7 1 0
BITMAP
F0
40
40
40
40
40
F0
ENDCHAR
STARTCHAR 04C1
ENCODING 1217
SWIDTH 617 0
DWIDTH 6 0
BBX 6 9 0 0
BITMAP
38
00
DC
58
58
78
58
58
94
ENDCHAR
STARTCHAR 04C2
ENCODING 1218
SWIDTH 617 0
DWIDTH 6 0
BBX 6 7 0 0
BITMAP
70
84
68
68
78
68
A4
ENDCHAR
STARTCHAR 04C3
ENCODING 1219
SWIDTH 617 0
DWIDTH 6 0
BBX 5 8 1 -1
BITMAP
98
90
A0
F0
90
88
88
30
ENDCHAR
STARTCHAR 04C4
ENCODING 1220
SWIDTH 617 0
DWIDTH 6 0
BBX 4 6 1 -1
BITMAP
90
A0
F0
90
90
30
ENDCHAR
STARTCHAR 04C5
ENCODING 1221
SWIDTH 617 0
DWIDTH 6 0
BBX 6 9 0 -2
BITMAP
78
48
48
48
48
48
CC
04
04
ENDCHAR
STARTCHAR 04C6
ENCODING 1222
SWIDTH 617 0
DWIDTH 6 0
BBX 6 7 0 -2
BITMAP
78
48
48
48
CC
04
04
ENDCHAR
STARTCHAR 04C7
ENCODING 1223
SWIDTH 617 0
DWIDTH 6 0
BBX 4 9 1 -2
BITMAP
90
90
90
F0
90
90
90
10
30
ENDCHAR
STARTCHAR 04C8
ENCODING 1224
SWIDTH 617 0
DWIDTH 6 0
BBX 4 7 1 -2
BITMAP
90
90
F0
90
90
10
30
ENDCHAR
STARTCHAR 04C9
ENCODING 1225
SWIDTH 617 0
DWIDTH 6 0
BBX 5 9 1 -2
BITMAP
90
90
90
F0
90
90
98
08
08
ENDCHAR
STARTCHAR 04CA
ENCODING 1226
SWIDTH 617 0
DWIDTH 6 0
BBX 5 7 1 -2
BITMAP
90
90
F0
90
98
08
08
ENDCHAR
STARTCHAR 04CB
ENCODING 1227
SWIDTH 617 0
DWIDTH 6 0
BBX 4 9 1 -2
BITMAP
90
90
90
F0
10
10
10
10
10
ENDCHAR
STARTCHAR 04CC
ENCODING 1228
SWIDTH 617 0
DWIDTH 6 0
BBX 4 7 1 -2
BITMAP
90
90
F0
10
10
10
10
ENDCHAR
STARTCHAR 04CD
ENCODING 1229
SWIDTH 617 0
DWIDTH 6 0
BBX 5 9 1 -2
BITMAP
90
90
F0
F0
D0
90
98
08
08
ENDCHAR
STARTCHAR 04CE
ENCODING 1230
SWIDTH 617 0
DWIDTH 6 0
BBX 5 7 1 -2
BITMAP
90
90
F0
F0
D8
08
08
ENDCHAR
STARTCHAR 04CF
ENCODING 1231
SWIDTH 617 0
DWIDTH 6 0
BBX 4 7 1 0
BITMAP
F0
40
40
40
40
40
F0
ENDCHAR
STARTCHAR 04D0
ENCODING 1232
SWIDTH 617 0
DWIDTH 6 0
BBX 6 9 0 0
BITMAP
38
00
30
30
30
48
78
48
C4
ENDCHAR
STARTCHAR 04D1
ENCODING 1233
SWIDTH 617 0
DWIDTH 6 0
BBX 4 7 1 0
BITMAP
70
00
F0
10
F0
90
F0
ENDCHAR
STARTCHAR 04D2
ENCODING 1234
SWIDTH 617 0
DWIDTH 6 0
BBX 6 9 0 0
BITMAP
68
00
30
30
30
48
78
48
C4
ENDCHAR
STARTCHAR 04D3
ENCODING 1235
SWIDTH 617 0
DWIDTH 6 0
BBX 4 7 1 0
BITMAP
D0
00
F0
10
F0
90
F0
ENDCHAR
STARTCHAR 04D4
ENCODING 1236
SWIDTH 617 0
DWIDTH 6 0
BBX 6 7 0 0
BITMAP
1C
30
30
5C
70
50
9C
ENDCHAR
STARTCHAR 04D5
ENCODING 1237
SWIDTH 617 0
DWIDTH 6 0
BBX 6 5 0 0
BITMAP
FC
24
7C
A0
FC
ENDCHAR
STARTCHAR 04D6
ENCODING 1238
SWIDTH 617 0
DWIDTH 6 0
BBX 4 9 1 0
BITMAP
60
00
F0
80
80
F0
80
80
F0
ENDCHAR
STARTCHAR 04D7
ENCODING 1239
SWIDTH 617 0
DWIDTH 6 0
BBX 4 7 1 0
BITMAP
60
00
F0
90
F0
80
F0
ENDCHAR
STARTCHAR 04D8
ENCODING 1240
SWIDTH 617 0
DWIDTH 6 0
BBX 5 7 0 0
BITMAP
78
08
08
F8
88
48
70
ENDCHAR
STARTCHAR 04D9
ENCODING 1241
SWIDTH 617 0
DWIDTH 6 0
BBX 4 5 1 0
BITMAP
F0
10
F0
90
F0
ENDCHAR
STARTCHAR 04DA
ENCODING 1242
SWIDTH 617 0
DWIDTH 6 0
BBX 5 8 0 0
BITMAP
58
78
08
08
F8
88
48
70
ENDCHAR
STARTCHAR 04DB
ENCODING 1243
SWIDTH 617 0
DWIDTH 6 0
BBX 4 7 1 0
BITMAP
50
00
F0
10
F0
90
F0
ENDCHAR
STARTCHAR 04DC
ENCODING 1244
SWIDTH 617 0
DWIDTH 6 0
BBX 6 9 0 0
BITMAP
68
00
DC
58
58
78
58
58
94
ENDCHAR
STARTCHAR 04DD
ENCODING 1245
SWIDTH 617 0
DWIDTH 6 0
BBX 6 7 0 0
BITMAP
58
84
68
68
78
68
A4
ENDCHAR
STARTCHAR 04DE
ENCODING 1246
SWIDTH 617 0
DWIDTH 6 0
BBX 6 9 0 0
BITMAP
58
00
78
48
08
38
04
84
78
ENDCHAR
STARTCHAR 04DF
ENCODING 1247
SWIDTH 617 0
DWIDTH 6 0
BBX 4 7 1 0
BITMAP
D0
00
F0
10
70
90
F0
ENDCHAR
STARTCHAR 04E0
ENCODING 1248
SWIDTH 617 0
DWIDTH 6 0
BBX 4 7 1 0
BITMAP
F0
20
40
70
10
90
F0
ENDCHAR
STARTCHAR 04E1
ENCODING 1249
SWIDTH 617 0
DWIDTH 6 0
BBX 4 7 1 -2
BITMAP
F0
20
40
30
10
90
F0
ENDCHAR
STARTCHAR 04E2
ENCODING 1250
SWIDTH 617 0
DWIDTH 6 0
BBX 4 9 1 0
BITMAP
F0
00
90
B0
B0
D0
D0
90
90
ENDCHAR
STARTCHAR 04E3
ENCODING 1251
SWIDTH 617 0
DWIDTH 6 0
BBX 4 7 1 0
BITMAP
F0
00
90
B0
D0
D0
90
ENDCHAR
STARTCHAR 04E4
ENCODING 1252
SWIDTH 617 0
DWIDTH 6 0
BBX 4 9 1 0
BITMAP
B0
00
90
B0
B0
D0
D0
90
90
ENDCHAR
STARTCHAR 04E5
ENCODING 1253
SWIDTH 617 0
DWIDTH 6 0
BBX 4 7 1 0
BITMAP
B0
00
90
B0
D0
D0
90
ENDCHAR
STARTCHAR 04E6
ENCODING 1254
SWIDTH 617 0
DWIDTH 6 0
BBX 4 9 1 0
BITMAP
D0
00
F0
90
90
90
90
90
F0
ENDCHAR
STARTCHAR 04E7
ENCODING 1255
SWIDTH 617 0
DWIDTH 6 0
BBX 4 7 1 0
BITMAP
B0
00
F0
90
90
90
F0
ENDCHAR
STARTCHAR 04E8
ENCODING 1256
SWIDTH 617 0
DWIDTH 6 0
BBX 5 7 0 0
BITMAP
78
48
88
F8
88
48
70
ENDCHAR
STARTCHAR 04E9
ENCODING 1257
SWIDTH 617 0
DWIDTH 6 0
BBX 5 5 0 0
BITMAP
78
48
F8
48
70
ENDCHAR
STARTCHAR 04EA
ENCODING 1258
SWIDTH 617 0
DWIDTH 6 0
BBX 5 9 0 0
BITMAP
68
00
78
48
88
F8
88
48
70
ENDCHAR
STARTCHAR 04EB
ENCODING 1259
SWIDTH 617 0
DWIDTH 6 0
BBX 5 7 0 0
BITMAP
50
00
78
48
F8
48
70
ENDCHAR
STARTCHAR 04EC
ENCODING 1260
SWIDTH 617 0
DWIDTH 6 0
BBX 4 9 1 0
BITMAP
B0
00
F0
90
10
70
10
90
F0
ENDCHAR
STARTCHAR 04ED
ENCODING 1261
SWIDTH 617 0
DWIDTH 6 0
BBX 4 7 1 0
BITMAP
A0
00
F0
10
70
90
E0
ENDCHAR
STARTCHAR 04EE
ENCODING 1262
SWIDTH 617 0
DWIDTH 6 0
BBX 6 9 0 0
BITMAP
78
00
84
48
48
30
30
20
E0
ENDCHAR
STARTCHAR 04EF
ENCODING 1263
SWIDTH 617 0
DWIDTH 6 0
BBX 6 9 0 -2
BITMAP
78
84
48
48
30
30
30
20
60
ENDCHAR
STARTCHAR 04F0
ENCODING 1264
SWIDTH 617 0
DWIDTH 6 0
BBX 6 9 0 0
BITMAP
28
00
84
48
48
30
30
20
E0
ENDCHAR
STARTCHAR 04F1
ENCODING 1265
SWIDTH 617 0
DWIDTH 6 0
BBX 6 9 0 -2
BITMAP
68
84
48
48
30
30
30
20
60
ENDCHAR
STARTCHAR 04F2
ENCODING 1266
SWIDTH 617 0
DWIDTH 6 0
BBX 6 9 0 0
BITMAP
3C
00
84
48
48
30
30
20
E0
ENDCHAR
STARTCHAR 04F3
ENCODING 1267
SWIDTH 617 0
DWIDTH 6 0
BBX 6 9 0 -2
BITMAP
3C
84
48
48
30
30
30
20
60
ENDCHAR
STARTCHAR 04F4
ENCODING 1268
SWIDTH 617 0
DWIDTH 6 0
BBX 4 9 1 0
BITMAP
A0
00
90
90
90
F0
10
10
10
ENDCHAR
STARTCHAR 04F5
ENCODING 1269
SWIDTH 617 0
DWIDTH 6 0
BBX 4 7 1 0
BITMAP
50
00
90
90
F0
10
10
ENDCHAR
STARTCHAR 04F6
ENCODING 1270
SWIDTH 617 0
DWIDTH 6 0
BBX 4 9 1 -2
BITMAP
F0
80
80
80
80
80
80
40
40
ENDCHAR
STARTCHAR 04F7
ENCODING 1271
SWIDTH 617 0
DWIDTH 6 0
BBX 4 7 1 -2
BITMAP
F0
80
80
80
80
80
80
ENDCHAR
STARTCHAR 04F8
ENCODING 1272
SWIDTH 617 0
DWIDTH 6 0
BBX 4 9 1 0
BITMAP
A0
00
90
90
90
F0
B0
B0
D0
ENDCHAR
STARTCHAR 04F9
ENCODING 1273
SWIDTH 617 0
DWIDTH 6 0
BBX 4 7 1 0
BITMAP
50
00
90
90
F0
B0
D0
ENDCHAR
STARTCHAR 04FA
ENCODING 1274
SWIDTH 617 0
DWIDTH 6 0
BBX 6 9 0 -2
BITMAP
7C
40
40
E0
40
40
60
20
60
ENDCHAR
STARTCHAR 04FB
ENCODING 1275
SWIDTH 617 0
DWIDTH 6 0
BBX 5 7 1 -2
BITMAP
F8
80
E0
80
C0
40
C0
ENDCHAR
STARTCHAR 04FC
ENCODING 1276
SWIDTH 617 0
DWIDTH 6 0
BBX 6 9 0 -2
BITMAP
CC
48
30
10
30
48
CC
04
0C
ENDCHAR
STARTCHAR 04FD
ENCODING 1277
SWIDTH 617 0
DWIDTH 6 0
BBX 5 7 1 -2
BITMAP
98
60
60
60
98
08
18
ENDCHAR
STARTCHAR 04FE
ENCODING 1278
SWIDTH 617 0
DWIDTH 6 0
BBX 6 7 0 0
BITMAP
CC
48
30
78
30
48
CC
ENDCHAR
STARTCHAR 04FF
ENCODING 1279
SWIDTH 617 0
DWIDTH 6 0
BBX 5 5 1 0
BITMAP
98
60
F0
60
98
ENDCHAR
STARTCHAR 0500
ENCODING 1280
SWIDTH 617 0
DWIDTH 6 0
BBX 5 7 0 0
BITMAP
08
08
08
78
88
48
78
ENDCHAR
STARTCHAR 0501
ENCODING 1281
SWIDTH 617 0
DWIDTH 6 0
BBX 4 8 1 0
BITMAP
10
10
10
F0
90
90
90
F0
ENDCHAR
STARTCHAR 0502
ENCODING 1282
SWIDTH 617 0
DWIDTH 6 0
BBX 6 7 0 0
BITMAP
10
10
18
74
94
94
78
ENDCHAR
STARTCHAR 0503
ENCODING 1283
SWIDTH 617 0
DWIDTH 6 0
BBX 6 8 0 0
BITMAP
10
10
10
78
94
94
54
78
ENDCHAR
STARTCHAR 0504
ENCODING 1284
SWIDTH 617 0
DWIDTH 6 0
BBX 6 7 0 0
BITMAP
E0
20
28
44
24
24
18
ENDCHAR
STARTCHAR 0505
ENCODING 1285
SWIDTH 617 0
DWIDTH 6 0
BBX 6 5 0 0
BITMAP
E0
18
64
14
18
ENDCHAR
STARTCHAR 0506
ENCODING 1286
SWIDTH 617 0
DWIDTH 6 0
BBX 4 9 1 -2
BITMAP
E0
10
10
E0
10
10
10
10
10
ENDCHAR
STARTCHAR 0507
ENCODING 1287
SWIDTH 617 0
DWIDTH 6 0
BBX 4 7 1 -2
BITMAP
E0
10
E0
10
10
10
10
ENDCHAR
STARTCHAR 0508
ENCODING 1288
SWIDTH 617 0
DWIDTH 6 0
BBX 6 7 0 0
BITMAP
70
50
54
54
54
54
98
ENDCHAR
STARTCHAR 0509
ENCODING 1289
SWIDTH 617 0
DWIDTH 6 0
BBX 6 5 0 0
BITMAP
78
54
54
54
98
ENDCHAR
STARTCHAR 050A
ENCODING 1290
SWIDTH 617 0
DWIDTH 6 0
BBX 5 7 1 0
BITMAP
A0
A0
B0
E8
A8
A8
B0
ENDCHAR
STARTCHAR 050B
ENCODING 1291
SWIDTH 617 0
DWIDTH 6 0
BBX 5 5 1 0
BITMAP
B0
A8
E8
A8
B0
ENDCHAR
STARTCHAR 050C
ENCODING 1292
SWIDTH 617 0
DWIDTH 6 0
BBX 5 7 1 0
BITMAP
70
80
80
90
88
88
70
ENDCHAR
STARTCHAR 050D
ENCODING 1293
SWIDTH 617 0
DWIDTH 6 0
BBX 4 5 1 0
BITMAP
F0
80
90
90
70
ENDCHAR
STARTCHAR 050E
ENCODING 1294
SWIDTH 617 0
DWIDTH 6 0
BBX 6 7 0 0
BITMAP
F8
20
28
24
24
24
38
ENDCHAR
STARTCHAR 050F
ENCODING 1295
SWIDTH 617 0
DWIDTH 6 0
BBX 6 5 0 0
BITMAP
F8
28
24
28
38
ENDCHAR
STARTCHAR 0510
ENCODING 1296
SWIDTH 617 0
DWIDTH 6 0
BBX 5 7 1 0
BITMAP
F0
90
80
E0
80
88
F0
ENDCHAR
STARTCHAR 0511
ENCODING 1297
SWIDTH 617 0
DWIDTH 6 0
BBX 4 5 1 0
BITMAP
F0
80
E0
90
F0
ENDCHAR
STARTCHAR 0512
ENCODING 1298
SWIDTH 617 0
DWIDTH 6 0
BBX 6 9 0 -2
BITMAP
78
48
48
48
48
48
CC
04
0C
ENDCHAR
STARTCHAR 0513
ENCODING 1299
SWIDTH 617 0
DWIDTH 6 0
BBX 6 7 0 -2
BITMAP
78
48
48
48
CC
04
0C
ENDCHAR
STARTCHAR 1E00
ENCODING 7680
SWIDTH 617 0
DWIDTH 6 0
BBX 6 9 0 -2
BITMAP
30
30
30
48
78
48
C4
10
30
ENDCHAR
STARTCHAR 1E01
ENCODING 7681
SWIDTH 617 0
DWIDTH 6 0
BBX 4 7 1 -2
BITMAP
F0
10
F0
90
F0
40
40
ENDCHAR
STARTCHAR 1E3E
ENCODING 7742
SWIDTH 617 0
DWIDTH 6 0
BBX 4 9 1 0
BITMAP
30
00
90
90
F0
F0
D0
90
90
ENDCHAR
STARTCHAR 1E3F
ENCODING 7743
SWIDTH 617 0
DWIDTH 6 0
BBX 6 7 0 0
BITMAP
18
00
FC
94
94
94
94
ENDCHAR
STARTCHAR 1E80
ENCODING 7808
SWIDTH 617 0
DWIDTH 6 0
BBX 6 9 0 0
BITMAP
60
00
94
B4
74
78
68
48
48
ENDCHAR
STARTCHAR 1E81
ENCODING 7809
SWIDTH 617 0
DWIDTH 6 0
BBX 6 7 0 0
BITMAP
60
00
94
B4
78
48
48
ENDCHAR
STARTCHAR 1E82
ENCODING 7810
SWIDTH 617 0
DWIDTH 6 0
BBX 6 9 0 0
BITMAP
18
00
94
B4
74
78
68
48
48
ENDCHAR
STARTCHAR 1E83
ENCODING 7811
SWIDTH 617 0
DWIDTH 6 0
BBX 6 7 0 0
BITMAP
18
00
94
B4
78
48
48
ENDCHAR
STARTCHAR 1E84
ENCODING 7812
SWIDTH 617 0
DWIDTH 6 0
BBX 6 9 0 0
BITMAP
68
00
94
B4
74
78
68
48
48
ENDCHAR
STARTCHAR 1E85
ENCODING 7813
SWIDTH 617 0
DWIDTH 6 0
BBX 6 7 0 0
BITMAP
68
00
94
B4
78
48
48
ENDCHAR
STARTCHAR 1EA0
ENCODING 7840
SWIDTH 617 0
DWIDTH 6 0
BBX 6 9 0 -2
BITMAP
30
30
30
48
78
48
C4
00
10
ENDCHAR
STARTCHAR 1EA1
ENCODING 7841
SWIDTH 617 0
DWIDTH 6 0
BBX 4 7 1 -2
BITMAP
F0
10
F0
90
F0
00
40
ENDCHAR
STARTCHAR 1EA2
ENCODING 7842
SWIDTH 617 0
DWIDTH 6 0
BBX 6 10 0 0
BITMAP
10
10
00
30
30
30
48
78
48
C4
ENDCHAR
STARTCHAR 1EA3
ENCODING 7843
SWIDTH 617 0
DWIDTH 6 0
BBX 4 8 1 0
BITMAP
20
20
00
F0
10
F0
90
F0
ENDCHAR
STARTCHAR 1EA4
ENCODING 7844
SWIDTH 617 0
DWIDTH 6 0
BBX 6 10 0 0
BITMAP
04
78
00
30
30
30
48
78
48
C4
ENDCHAR
STARTCHAR 1EA5
ENCODING 7845
SWIDTH 617 0
DWIDTH 6 0
BBX 5 8 1 0
BITMAP
08
F0
00
F0
10
F0
90
F0
ENDCHAR
STARTCHAR 1EA6
ENCODING 7846
SWIDTH 617 0
DWIDTH 6 0
BBX 6 10 0 0
BITMAP
80
78
00
30
30
30
48
78
48
C4
ENDCHAR
STARTCHAR 1EA7
ENCODING 7847
SWIDTH 617 0
DWIDTH 6 0
BBX 5 8 0 0
BITMAP
80
78
00
78
08
78
48
78
ENDCHAR
STARTCHAR 1EA8
ENCODING 7848
SWIDTH 617 0
DWIDTH 6 0
BBX 6 11 0 0
BITMAP
08
04
78
00
30
30
30
48
78
48
C4
ENDCHAR
STARTCHAR 1EA9
ENCODING 7849
SWIDTH 617 0
DWIDTH 6 0
BBX 5 9 1 0
BITMAP
10
08
F0
00
F0
10
F0
90
F0
ENDCHAR
STARTCHAR 1EAA
ENCODING 7850
SWIDTH 617 0
DWIDTH 6 0
BBX 6 11 0 0
BITMAP
38
00
78
00
30
30
30
48
78
48
C4
ENDCHAR
STARTCHAR 1EAB
ENCODING 7851
SWIDTH 617 0
DWIDTH 6 0
BBX 4 9 1 0
BITMAP
70
00
F0
00
F0
10
F0
90
F0
ENDCHAR
STARTCHAR 1EAC
ENCODING 7852
SWIDTH 617 0
DWIDTH 6 0
BBX 6 11 0 -2
BITMAP
38
00
30
30
30
48
78
48
C4
00
10
ENDCHAR
STARTCHAR 1EAD
ENCODING 7853
SWIDTH 617 0
DWIDTH 6 0
BBX 4 9 1 -2
BITMAP
70
00
F0
10
F0
90
F0
00
40
ENDCHAR
STARTCHAR 1EAE
ENCODING 7854
SWIDTH 617 0
DWIDTH 6 0
BBX 6 10 0 0
BITMAP
10
38
00
30
30
30
48
78
48
C4
ENDCHAR
STARTCHAR 1EAF
ENCODING 7855
SWIDTH 617 0
DWIDTH 6 0
BBX 4 8 1 0
BITMAP
30
60
00
F0
10
F0
90
F0
ENDCHAR
STARTCHAR 1EB0
ENCODING 7856
SWIDTH 617 0
DWIDTH 6 0
BBX 6 10 0 0
BITMAP
20
38
00
30
30
30
48
78
48
C4
ENDCHAR
STARTCHAR 1EB1
ENCODING 7857
SWIDTH 617 0
DWIDTH 6 0
BBX 4 8 1 0
BITMAP
50
60
00
F0
10
F0
90
F0
ENDCHAR
STARTCHAR 1EB2
ENCODING 7858
SWIDTH 617 0
DWIDTH 6 0
BBX 6 11 0 0
BITMAP
10
20
30
00
30
30
30
48
78
48
C4
ENDCHAR
STARTCHAR 1EB3
ENCODING 7859
SWIDTH 617 0
DWIDTH 6 0
BBX 4 9 1 0
BITMAP
20
40
60
00
F0
10
F0
90
F0
ENDCHAR
STARTCHAR 1EB4
ENCODING 7860
SWIDTH 617 0
DWIDTH 6 0
BBX 6 11 0 0
BITMAP
08
30
30
00
30
30
30
48
78
48
C4
ENDCHAR
STARTCHAR 1EB5
ENCODING 7861
SWIDTH 617 0
DWIDTH 6 0
BBX 4 9 1 0
BITMAP
10
60
60
00
F0
10
F0
90
F0
ENDCHAR
STARTCHAR 1EB6
ENCODING 7862
SWIDTH 617 0
DWIDTH 6 0
BBX 6 11 0 -2
BITMAP
38
00
30
30
30
48
78
48
C4
00
10
ENDCHAR
STARTCHAR 1EB7
ENCODING 7863
SWIDTH 617 0
DWIDTH 6 0
BBX 4 9 1 -2
BITMAP
70
00
F0
10
F0
90
F0
00
40
ENDCHAR
STARTCHAR 1EB8
ENCODING 7864
SWIDTH 617 0
DWIDTH 6 0
BBX 4 9 1 -2
BITMAP
F0
80
80
F0
80
80
F0
00
60
ENDCHAR
STARTCHAR 1EB9
ENCODING 7865
SWIDTH 617 0
DWIDTH 6 0
BBX 4 7 1 -2
BITMAP
F0
90
F0
80
F0
00
20
ENDCHAR
STARTCHAR 1EBA
ENCODING 7866
SWIDTH 617 0
DWIDTH 6 0
BBX 4 10 1 0
BITMAP
20
20
00
F0
80
80
F0
80
80
F0
ENDCHAR
STARTCHAR 1EBB
ENCODING 7867
SWIDTH 617 0
DWIDTH 6 0
BBX 4 8 1 0
BITMAP
20
20
00
F0
90
F0
80
F0
ENDCHAR
STARTCHAR 1EBC
ENCODING 7868
SWIDTH 617 0
DWIDTH 6 0
BBX 4 9 1 0
BITMAP
F0
00
F0
80
80
F0
80
80
F0
ENDCHAR
STARTCHAR 1EBD
ENCODING 7869
SWIDTH 617 0
DWIDTH 6 0
BBX 4 7 1 0
BITMAP
F0
00
F0
90
F0
80
F0
ENDCHAR
STARTCHAR 1EBE
ENCODING 7870
SWIDTH 617 0
DWIDTH 6 0
BBX 5 10 1 0
BITMAP
08
F0
00
F0
80
80
F0
80
80
F0
ENDCHAR
STARTCHAR 1EBF
ENCODING 7871
SWIDTH 617 0
DWIDTH 6 0
BBX 5 8 1 0
BITMAP
08
F0
00
F0
90
F0
80
F0
ENDCHAR
STARTCHAR 1EC0
ENCODING 7872
SWIDTH 617 0
DWIDTH 6 0
BBX 5 10 0 0
BITMAP
80
78
00
78
40
40
78
40
40
78
ENDCHAR
STARTCHAR 1EC1
ENCODING 7873
SWIDTH 617 0
DWIDTH 6 0
BBX 5 8 0 0
BITMAP
80
78
00
78
48
78
40
78
ENDCHAR
STARTCHAR 1EC2
ENCODING 7874
SWIDTH 617 0
DWIDTH 6 0
BBX 5 11 1 0
BITMAP
10
08
F0
00
F0
80
80
F0
80
80
F0
ENDCHAR
STARTCHAR 1EC3
ENCODING 7875
SWIDTH 617 0
DWIDTH 6 0
BBX 5 9 1 0
BITMAP
10
08
F0
00
F0
90
F0
80
F0
ENDCHAR
STARTCHAR 1EC4
ENCODING 7876
SWIDTH 617 0
DWIDTH 6 0
BBX 4 11 1 0
BITMAP
70
00
F0
00
F0
80
80
F0
80
80
F0
ENDCHAR
STARTCHAR 1EC5
ENCODING 7877
SWIDTH 617 0
DWIDTH 6 0
BBX 4 9 1 0
BITMAP
70
00
F0
00
F0
90
F0
80
F0
ENDCHAR
STARTCHAR 1EC6
ENCODING 7878
SWIDTH 617 0
DWIDTH 6 0
BBX 4 11 1 -2
BITMAP
70
00
F0
80
80
F0
80
80
F0
00
60
ENDCHAR
STARTCHAR 1EC7
ENCODING 7879
SWIDTH 617 0
DWIDTH 6 0
BBX 4 9 1 -2
BITMAP
70
00
F0
90
F0
80
F0
00
20
ENDCHAR
STARTCHAR 1EC8
ENCODING 7880
SWIDTH 617 0
DWIDTH 6 0
BBX 4 10 1 0
BITMAP
60
40
00
F0
40
40
40
40
40
F0
ENDCHAR
STARTCHAR 1EC9
ENCODING 7881
SWIDTH 617 0
DWIDTH 6 0
BBX 4 8 1 0
BITMAP
20
20
00
E0
20
20
20
F0
ENDCHAR
STARTCHAR 1ECA
ENCODING 7882
SWIDTH 617 0
DWIDTH 6 0
BBX 4 9 1 -2
BITMAP
F0
40
40
40
40
40
F0
00
40
ENDCHAR
STARTCHAR 1ECB
ENCODING 7883
SWIDTH 617 0
DWIDTH 6 0
BBX 4 9 1 -2
BITMAP
20
00
E0
20
20
20
F0
00
20
ENDCHAR
STARTCHAR 1ECC
ENCODING 7884
SWIDTH 617 0
DWIDTH 6 0
BBX 4 9 1 -2
BITMAP
F0
90
90
90
90
90
F0
00
20
ENDCHAR
STARTCHAR 1ECD
ENCODING 7885
SWIDTH 617 0
DWIDTH 6 0
BBX 4 7 1 -2
BITMAP
F0
90
90
90
F0
00
60
ENDCHAR
STARTCHAR 1ECE
ENCODING 7886
SWIDTH 617 0
DWIDTH 6 0
BBX 4 10 1 0
BITMAP
20
20
00
F0
90
90
90
90
90
F0
ENDCHAR
STARTCHAR 1ECF
ENCODING 7887
SWIDTH 617 0
DWIDTH 6 0
BBX 4 8 1 0
BITMAP
20
20
00
F0
90
90
90
F0
ENDCHAR
STARTCHAR 1ED0
ENCODING 7888
SWIDTH 617 0
DWIDTH 6 0
BBX 5 10 1 0
BITMAP
08
F0
00
F0
90
90
88
90
90
F0
ENDCHAR
STARTCHAR 1ED1
ENCODING 7889
SWIDTH 617 0
DWIDTH 6 0
BBX 5 8 1 0
BITMAP
08
F0
00
F0
90
90
90
F0
ENDCHAR
STARTCHAR 1ED2
ENCODING 7890
SWIDTH 617 0
DWIDTH 6 0
BBX 5 10 0 0
BITMAP
80
78
00
78
48
88
88
48
48
78
ENDCHAR
STARTCHAR 1ED3
ENCODING 7891
SWIDTH 617 0
DWIDTH 6 0
BBX 5 8 0 0
BITMAP
80
78
00
78
48
48
48
78
ENDCHAR
STARTCHAR 1ED4
ENCODING 7892
SWIDTH 617 0
DWIDTH 6 0
BBX 5 11 1 0
BITMAP
10
08
F0
00
F0
90
90
88
90
90
F0
ENDCHAR
STARTCHAR 1ED5
ENCODING 7893
SWIDTH 617 0
DWIDTH 6 0
BBX 5 9 1 0
BITMAP
10
08
F0
00
F0
90
90
90
F0
ENDCHAR
STARTCHAR 1ED6
ENCODING 7894
SWIDTH 617 0
DWIDTH 6 0
BBX 4 11 1 0
BITMAP
70
00
F0
00
F0
90
90
90
90
90
F0
ENDCHAR
STARTCHAR 1ED7
ENCODING 7895
SWIDTH 617 0
DWIDTH 6 0
BBX 4 9 1 0
BITMAP
70
00
F0
00
F0
90
90
90
F0
ENDCHAR
STARTCHAR 1ED8
ENCODING 7896
SWIDTH 617 0
DWIDTH 6 0
BBX 4 11 1 -2
BITMAP
70
00
F0
90
90
90
90
90
F0
00
20
ENDCHAR
STARTCHAR 1ED9
ENCODING 7897
SWIDTH 617 0
DWIDTH 6 0
BBX 4 9 1 -2
BITMAP
60
00
F0
90
90
90
F0
00
60
ENDCHAR
STARTCHAR 1EDA
ENCODING 7898
SWIDTH 617 0
DWIDTH 6 0
BBX 6 9 0 0
BITMAP
18
00
7C
48
88
88
88
48
70
ENDCHAR
STARTCHAR 1EDB
ENCODING 7899
SWIDTH 617 0
DWIDTH 6 0
BBX 5 7 1 0
BITMAP
30
08
F0
90
90
90
F0
ENDCHAR
STARTCHAR 1EDC
ENCODING 7900
SWIDTH 617 0
DWIDTH 6 0
BBX 6 9 0 0
BITMAP
20
00
7C
48
88
88
88
48
70
ENDCHAR
STARTCHAR 1EDD
ENCODING 7901
SWIDTH 617 0
DWIDTH 6 0
BBX 5 7 1 0
BITMAP
C0
08
F0
90
90
90
F0
ENDCHAR
STARTCHAR 1EDE
ENCODING 7902
SWIDTH 617 0
DWIDTH 6 0
BBX 6 10 0 0
BITMAP
10
10
00
7C
48
88
88
88
48
70
ENDCHAR
STARTCHAR 1EDF
ENCODING 7903
SWIDTH 617 0
DWIDTH 6 0
BBX 5 8 1 0
BITMAP
20
20
08
F0
90
90
90
F0
ENDCHAR
STARTCHAR 1EE0
ENCODING 7904
SWIDTH 617 0
DWIDTH 6 0
BBX 6 9 0 0
BITMAP
78
00
7C
48
88
88
88
48
70
ENDCHAR
STARTCHAR 1EE1
ENCODING 7905
SWIDTH 617 0
DWIDTH 6 0
BBX 5 7 1 0
BITMAP
F0
08
F0
90
90
90
F0
ENDCHAR
STARTCHAR 1EE2
ENCODING 7906
SWIDTH 617 0
DWIDTH 6 0
BBX 6 9 0 -2
BITMAP
7C
48
88
88
88
48
70
00
30
ENDCHAR
STARTCHAR 1EE3
ENCODING 7907
SWIDTH 617 0
DWIDTH 6 0
BBX 5 8 1 -2
BITMAP
08
F0
90
90
90
F0
00
60
ENDCHAR
STARTCHAR 1EE4
ENCODING 7908
SWIDTH 617 0
DWIDTH 6 0
BBX 4 9 1 -2
BITMAP
90
90
90
90
90
90
F0
00
60
ENDCHAR
STARTCHAR 1EE5
ENCODING 7909
SWIDTH 617 0
DWIDTH 6 0
BBX 4 7 1 -2
BITMAP
90
90
90
90
F0
00
40
ENDCHAR
STARTCHAR 1EE6
ENCODING 7910
SWIDTH 617 0
DWIDTH 6 0
BBX 4 10 1 0
BITMAP
20
20
00
90
90
90
90
90
90
F0
ENDCHAR
STARTCHAR 1EE7
ENCODING 7911
SWIDTH 617 0
DWIDTH 6 0
BBX 4 8 1 0
BITMAP
20
20
00
90
90
90
90
F0
ENDCHAR
STARTCHAR 1EE8
ENCODING 7912
SWIDTH 617 0
DWIDTH 6 0
BBX 6 9 1 0
BITMAP
30
00
94
98
90
90
90
90
F0
ENDCHAR
STARTCHAR 1EE9
ENCODING 7913
SWIDTH 617 0
DWIDTH 6 0
BBX 6 7 1 0
BITMAP
30
04
98
90
90
90
F0
ENDCHAR
STARTCHAR 1EEA
ENCODING 7914
SWIDTH 617 0
DWIDTH 6 0
BBX 6 9 1 0
BITMAP
C0
00
94
98
90
90
90
90
F0
ENDCHAR
STARTCHAR 1EEB
ENCODING 7915
SWIDTH 617 0
DWIDTH 6 0
BBX 6 7 1 0
BITMAP
C0
04
98
90
90
90
F0
ENDCHAR
STARTCHAR 1EEC
ENCODING 7916
SWIDTH 617 0
DWIDTH 6 0
BBX 6 10 1 0
BITMAP
20
20
00
94
98
90
90
90
90
F0
ENDCHAR
STARTCHAR 1EED
ENCODING 7917
SWIDTH 617 0
DWIDTH 6 0
BBX 6 8 1 0
BITMAP
20
20
04
98
90
90
90
F0
ENDCHAR
STARTCHAR 1EEE
ENCODING 7918
SWIDTH 617 0
DWIDTH 6 0
BBX 6 9 1 0
BITMAP
F0
00
94
98
90
90
90
90
F0
ENDCHAR
STARTCHAR 1EEF
ENCODING 7919
SWIDTH 617 0
DWIDTH 6 0
BBX 6 7 1 0
BITMAP
F0
04
98
90
90
90
F0
ENDCHAR
STARTCHAR 1EF0
ENCODING 7920
SWIDTH 617 0
DWIDTH 6 0
BBX 6 9 1 -2
BITMAP
94
98
90
90
90
90
F0
00
60
ENDCHAR
STARTCHAR 1EF1
ENCODING 7921
SWIDTH 617 0
DWIDTH 6 0
BBX 6 8 1 -2
BITMAP
04
98
90
90
90
F0
00
40
ENDCHAR
STARTCHAR 1EF2
ENCODING 7922
SWIDTH 617 0
DWIDTH 6 0
BBX 6 9 0 0
BITMAP
60
04
C8
48
30
30
20
20
20
ENDCHAR
STARTCHAR 1EF3
ENCODING 7923
SWIDTH 617 0
DWIDTH 6 0
BBX 6 9 0 -2
BITMAP
20
84
48
48
30
30
30
20
60
ENDCHAR
STARTCHAR 1EF4
ENCODING 7924
SWIDTH 617 0
DWIDTH 6 0
BBX 6 9 0 -2
BITMAP
CC
48
30
30
20
20
20
00
30
ENDCHAR
STARTCHAR 1EF5
ENCODING 7925
SWIDTH 617 0
DWIDTH 6 0
BBX 6 8 0 -3
BITMAP
CC
48
30
30
30
20
60
18
ENDCHAR
STARTCHAR 1EF6
ENCODING 7926
SWIDTH 617 0
DWIDTH 6 0
BBX 6 10 0 0
BITMAP
10
10
04
C8
48
30
30
20
20
20
ENDCHAR
STARTCHAR 1EF7
ENCODING 7927
SWIDTH 617 0
DWIDTH 6 0
BBX 6 10 0 -2
BITMAP
10
10
84
48
48
30
30
30
20
60
ENDCHAR
STARTCHAR 1EF8
ENCODING 7928
SWIDTH 617 0
DWIDTH 6 0
BBX 6 9 0 0
BITMAP
78
04
C8
48
30
30
20
20
20
ENDCHAR
STARTCHAR 1EF9
ENCODING 7929
SWIDTH 617 0
DWIDTH 6 0
BBX 6 9 0 -2
BITMAP
78
84
48
48
30
30
30
20
60
ENDCHAR
STARTCHAR 1F4D
ENCODING 8013
SWIDTH 617 0
DWIDTH 6 0
BBX 6 8 -1 0
BITMAP
E0
3C
24
44
44
24
24
3C
ENDCHAR
STARTCHAR 2000
ENCODING 8192
SWIDTH 617 0
DWIDTH 6 0
BBX 0 0 0 0
BITMAP
ENDCHAR
STARTCHAR 2001
ENCODING 8193
SWIDTH 617 0
DWIDTH 6 0
BBX 0 0 0 0
BITMAP
ENDCHAR
STARTCHAR 2002
ENCODING 8194
SWIDTH 617 0
DWIDTH 6 0
BBX 0 0 0 0
BITMAP
ENDCHAR
STARTCHAR 2003
ENCODING 8195
SWIDTH 617 0
DWIDTH 6 0
BBX 0 0 0 0
BITMAP
ENDCHAR
STARTCHAR 2004
ENCODING 8196
SWIDTH 617 0
DWIDTH 6 0
BBX 0 0 0 0
BITMAP
ENDCHAR
STARTCHAR 2005
ENCODING 8197
SWIDTH 617 0
DWIDTH 6 0
BBX 0 0 0 0
BITMAP
ENDCHAR
STARTCHAR 2006
ENCODING 8198
SWIDTH 617 0
DWIDTH 6 0
BBX 0 0 0 0
BITMAP
ENDCHAR
STARTCHAR 2007
ENCODING 8199
SWIDTH 617 0
DWIDTH 6 0
BBX 0 0 0 0
BITMAP
ENDCHAR
STARTCHAR 2008
ENCODING 8200
SWIDTH 617 0
DWIDTH 6 0
BBX 0 0 0 0
BITMAP
ENDCHAR
STARTCHAR 2009
ENCODING 8201
SWIDTH 617 0
DWIDTH 6 0
BBX 0 0 0 0
BITMAP
ENDCHAR
STARTCHAR 200A
ENCODING 8202
SWIDTH 617 0
DWIDTH 6 0
BBX 0 0 0 0
BITMAP
ENDCHAR
STARTCHAR 200B
ENCODING 8203
SWIDTH 617 0
DWIDTH 6 0
BBX 0 0 0 0
BITMAP
ENDCHAR
STARTCHAR 2013
ENCODING 8211
SWIDTH 617 0
DWIDTH 6 0
BBX 6 1 0 3
BITMAP
FC
ENDCHAR
STARTCHAR 2014
ENCODING 8212
SWIDTH 617 0
DWIDTH 6 0
BBX 6 1 0 3
BITMAP
FC
ENDCHAR
STARTCHAR 2015
ENCODING 8213
SWIDTH 617 0
DWIDTH 6 0
BBX 6 1 0 3
BITMAP
FC
ENDCHAR
STARTCHAR 2017
ENCODING 8215
SWIDTH 617 0
DWIDTH 6 0
BBX 4 2 1 -2
BITMAP
F0
F0
ENDCHAR
STARTCHAR 2018
ENCODING 8216
SWIDTH 617 0
DWIDTH 6 0
BBX 2 3 2 5
BITMAP
40
80
80
ENDCHAR
STARTCHAR 2019
ENCODING 8217
SWIDTH 617 0
DWIDTH 6 0
BBX 2 3 2 5
BITMAP
40
40
80
ENDCHAR
STARTCHAR 201A
ENCODING 8218
SWIDTH 617 0
DWIDTH 6 0
BBX 2 2 2 -1
BITMAP
40
80
ENDCHAR
STARTCHAR 201B
ENCODING 8219
SWIDTH 617 0
DWIDTH 6 0
BBX 2 3 2 5
BITMAP
80
80
40
ENDCHAR
STARTCHAR 201C
ENCODING 8220
SWIDTH 617 0
DWIDTH 6 0
BBX 3 3 2 5
BITMAP
A0
C0
C0
ENDCHAR
STARTCHAR 201D
ENCODING 8221
SWIDTH 617 0
DWIDTH 6 0
BBX 3 3 1 5
BITMAP
60
60
A0
ENDCHAR
STARTCHAR 201E
ENCODING 8222
SWIDTH 617 0
DWIDTH 6 0
BBX 3 2 1 -1
BITMAP
60
E0
ENDCHAR
STARTCHAR 2020
ENCODING 8224
SWIDTH 617 0
DWIDTH 6 0
BBX 4 7 1 0
BITMAP
40
40
F0
40
40
40
40
ENDCHAR
STARTCHAR 2021
ENCODING 8225
SWIDTH 617 0
DWIDTH 6 0
BBX 4 9 1 -2
BITMAP
40
40
F0
40
40
40
F0
40
40
ENDCHAR
STARTCHAR 2022
ENCODING 8226
SWIDTH 617 0
DWIDTH 6 0
BBX 2 2 2 3
BITMAP
C0
C0
ENDCHAR
STARTCHAR 2025
ENCODING 8229
SWIDTH 617 0
DWIDTH 6 0
BBX 3 1 2 0
BITMAP
A0
ENDCHAR
STARTCHAR 2026
ENCODING 8230
SWIDTH 617 0
DWIDTH 6 0
BBX 5 1 1 0
BITMAP
F8
ENDCHAR
STARTCHAR 2030
ENCODING 8240
SWIDTH 617 0
DWIDTH 6 0
BBX 6 7 0 0
BITMAP
E0
A8
50
60
B8
34
3C
ENDCHAR
STARTCHAR 2032
ENCODING 8242
SWIDTH 617 0
DWIDTH 6 0
BBX 1 3 2 5
BITMAP
80
80
80
ENDCHAR
STARTCHAR 2033
ENCODING 8243
SWIDTH 617 0
DWIDTH 6 0
BBX 2 3 2 5
BITMAP
C0
C0
C0
ENDCHAR
STARTCHAR 2039
ENCODING 8249
SWIDTH 617 0
DWIDTH 6 0
BBX 2 4 2 1
BITMAP
40
80
80
40
ENDCHAR
STARTCHAR 203A
ENCODING 8250
SWIDTH 617 0
DWIDTH 6 0
BBX 2 4 2 1
BITMAP
80
40
40
80
ENDCHAR
STARTCHAR 203C
ENCODING 8252
SWIDTH 617 0
DWIDTH 6 0
BBX 5 7 1 0
BITMAP
90
90
90
90
90
00
98
ENDCHAR
STARTCHAR 2044
ENCODING 8260
SWIDTH 617 0
DWIDTH 6 0
BBX 4 5 1 1
BITMAP
10
20
40
40
80
ENDCHAR
STARTCHAR 2074
ENCODING 8308
SWIDTH 617 0
DWIDTH 6 0
BBX 4 4 1 3
BITMAP
20
60
A0
70
ENDCHAR
STARTCHAR 207F
ENCODING 8319
SWIDTH 617 0
DWIDTH 6 0
BBX 3 4 2 3
BITMAP
E0
A0
A0
A0
ENDCHAR
STARTCHAR 20A3
ENCODING 8355
SWIDTH 617 0
DWIDTH 6 0
BBX 5 7 0 0
BITMAP
78
40
40
78
40
E0
40
ENDCHAR
STARTCHAR 20A4
ENCODING 8356
SWIDTH 617 0
DWIDTH 6 0
BBX 5 7 1 0
BITMAP
70
90
80
E0
E0
80
F8
ENDCHAR
STARTCHAR 20A7
ENCODING 8359
SWIDTH 617 0
DWIDTH 6 0
BBX 5 7 1 0
BITMAP
D0
B0
B8
D0
90
90
98
ENDCHAR
STARTCHAR 20AB
ENCODING 8363
SWIDTH 617 0
DWIDTH 6 0
BBX 5 10 1 -2
BITMAP
10
38
10
F0
90
90
90
F0
00
F0
ENDCHAR
STARTCHAR 20AC
ENCODING 8364
SWIDTH 617 0
DWIDTH 6 0
BBX 4 7 1 0
BITMAP
70
40
E0
80
E0
40
70
ENDCHAR
STARTCHAR 2105
ENCODING 8453
SWIDTH 617 0
DWIDTH 6 0
BBX 6 7 0 0
BITMAP
E0
88
70
10
3C
34
1C
ENDCHAR
STARTCHAR 2113
ENCODING 8467
SWIDTH 617 0
DWIDTH 6 0
BBX 4 7 1 0
BITMAP
70
50
50
60
C0
40
20
ENDCHAR
STARTCHAR 2116
ENCODING 8470
SWIDTH 617 0
DWIDTH 6 0
BBX 5 7 1 0
BITMAP
B8
B8
B0
F8
E0
E0
A0
ENDCHAR
STARTCHAR 2122
ENCODING 8482
SWIDTH 617 0
DWIDTH 6 0
BBX 5 3 0 4
BITMAP
D8
68
68
ENDCHAR
STARTCHAR 2126
ENCODING 8486
SWIDTH 617 0
DWIDTH 6 0
BBX 6 7 0 0
BITMAP
78
48
84
84
48
48
FC
ENDCHAR
STARTCHAR 212E
ENCODING 8494
SWIDTH 617 0
DWIDTH 6 0
BBX 5 5 1 0
BITMAP
F0
88
F0
80
70
ENDCHAR
STARTCHAR 215B
ENCODING 8539
SWIDTH 617 0
DWIDTH 6 0
BBX 6 7 0 0
BITMAP
C0
48
50
28
34
4C
1C
ENDCHAR
STARTCHAR 215C
ENCODING 8540
SWIDTH 617 0
DWIDTH 6 0
BBX 6 7 0 0
BITMAP
E0
48
B0
58
34
2C
1C
ENDCHAR
STARTCHAR 215D
ENCODING 8541
SWIDTH 617 0
DWIDTH 6 0
BBX 6 7 0 0
BITMAP
E0
E8
B0
58
34
5C
1C
ENDCHAR
STARTCHAR 215E
ENCODING 8542
SWIDTH 617 0
DWIDTH 6 0
BBX 6 7 0 0
BITMAP
E0
30
50
28
34
5C
1C
ENDCHAR
STARTCHAR 2202
ENCODING 8706
SWIDTH 617 0
DWIDTH 6 0
BBX 4 7 1 0
BITMAP
F0
10
F0
90
90
90
E0
ENDCHAR
STARTCHAR 2206
ENCODING 8710
SWIDTH 617 0
DWIDTH 6 0
BBX 6 7 0 0
BITMAP
10
30
30
48
48
48
FC
ENDCHAR
STARTCHAR 220F
ENCODING 8719
SWIDTH 617 0
DWIDTH 6 0
BBX 4 8 1 -1
BITMAP
F0
90
90
90
90
90
90
90
ENDCHAR
STARTCHAR 2211
ENCODING 8721
SWIDTH 617 0
DWIDTH 6 0
BBX 6 8 0 -1
BITMAP
F8
40
20
10
10
20
40
FC
ENDCHAR
STARTCHAR 2212
ENCODING 8722
SWIDTH 617 0
DWIDTH 6 0
BBX 4 1 1 3
BITMAP
F0
ENDCHAR
STARTCHAR 2215
ENCODING 8725
SWIDTH 617 0
DWIDTH 6 0
BBX 4 8 1 -1
BITMAP
10
20
20
20
40
40
40
80
ENDCHAR
STARTCHAR 221A
ENCODING 8730
SWIDTH 617 0
DWIDTH 6 0
BBX 6 7 0 0
BITMAP
04
08
08
D0
50
30
20
ENDCHAR
STARTCHAR 221E
ENCODING 8734
SWIDTH 617 0
DWIDTH 6 0
BBX 6 4 0 1
BITMAP
48
B4
94
68
ENDCHAR
STARTCHAR 222B
ENCODING 8747
SWIDTH 617 0
DWIDTH 6 0
BBX 4 10 1 -2
BITMAP
30
40
40
40
40
40
40
40
40
C0
ENDCHAR
STARTCHAR 2248
ENCODING 8776
SWIDTH 617 0
DWIDTH 6 0
BBX 4 4 1 1
BITMAP
D0
B0
D0
B0
ENDCHAR
STARTCHAR 2260
ENCODING 8800
SWIDTH 617 0
DWIDTH 6 0
BBX 4 4 1 1
BITMAP
F0
20
F0
40
ENDCHAR
STARTCHAR 2264
ENCODING 8804
SWIDTH 617 0
DWIDTH 6 0
BBX 4 6 1 0
BITMAP
10
60
C0
30
00
F0
ENDCHAR
STARTCHAR 2265
ENCODING 8805
SWIDTH 617 0
DWIDTH 6 0
BBX 4 6 1 0
BITMAP
80
60
30
C0
00
F0
ENDCHAR
STARTCHAR 25CA
ENCODING 9674
SWIDTH 617 0
DWIDTH 6 0
BBX 4 7 1 0
BITMAP
60
60
90
90
90
60
60
ENDCHAR
STARTCHAR F6C3
ENCODING 63171
SWIDTH 617 0
DWIDTH 6 0
BBX 2 2 1 -1
BITMAP
40
80
ENDCHAR
STARTCHAR FEFF
ENCODING 65279
SWIDTH 617 0
DWIDTH 6 0
BBX 0 0 0 0
BITMAP
ENDCHAR
STARTCHAR FFFC
ENCODING 65532
SWIDTH 617 0
DWIDTH 6 0
BBX 6 5 0 0
BITMAP
8C
C4
B4
CC
8C
ENDCHAR
STARTCHAR FFFD
ENCODING 65533
SWIDTH 617 0
DWIDTH 6 0
BBX 6 10 0 -1
BITMAP
20
30
30
48
EC
E8
78
30
30
20
ENDCHAR
ENDFONT
